<svg id="图层_1" data-name="图层 1" xmlns="http://www.w3.org/2000/svg" viewBox="0 0 1920 277"><defs><style>.cls-1{fill:#fefefe;}.cls-2{fill:#a1e4c8;}</style></defs><title>图层4拷贝_35</title><path class="cls-1" d="M-654,530V323a6.41,6.41,0,0,0,1.64,0,44.38,44.38,0,0,1,13.67-2c6.53.32,13.06-.62,19.63.79,2.72.59,5.56,1.86,8.54,1.19,2.14,1.89,5,1.75,7.49,2.42a48,48,0,0,1,7.77,3c9.9,4.58,19.36,10,27.09,17.91,2.09,2.15,4.25,4.23,6.35,6.37a67.56,67.56,0,0,1,12.34,17.39c2.8,5.66,5.72,11.24,7.66,17.34,1,3.09.81,6.56,2.82,9.32-.44,3.43,1.9,6.52.63,10.9,4.8-1.73,8.72-3.5,12.83-4.63a48.15,48.15,0,0,1,13.17-2c4.38,0,8.76-.18,13.1,1s8.47,1.92,12.33,4,7.59,4.1,11.38,6.15c2.75-5.1,4.87-10.26,7.83-15,3.4-5.47,8-9.78,12.42-14.35,3.91-4.08,8.69-6.9,13.45-9.79,5.72-3.47,12-5.59,18.26-7.82,3.87-1.38,8.09-1.28,12.13-2,3.71-.69,7.67.15,11.47-.23s7.5.63,11.05,1.3a71.36,71.36,0,0,1,18.47,6,8.43,8.43,0,0,0,4,.72c.65-.37.22-1.15.48-1.36,3.37-2.66,4.08-7.41,7.74-9.82,3.71-5.89,8.66-10.79,13.17-16,5.34-6.16,11.72-11.31,18.14-16.38a204.45,204.45,0,0,1,17.71-12.77c7.76-4.91,15.57-9.55,24.09-13.1,6.12-2.55,12.16-5.29,18.48-7.26,3.25-1,6.41-2.56,9.7-3.09,5.45-.87,10.54-3.61,16.24-3.13,4.78-2.51,10.23-1.53,15.29-2.86,3-.78,6.32-.39,9.46-.07,3.33.34,6.29-1.19,9.59-1.2,3.94,0,7.61,1.47,11.59,1.24a48.07,48.07,0,0,1,11.12.65c4.67.82,9.44,1.25,14.15,2.17A141.08,141.08,0,0,1-153.17,292c5.14,1.66,10.41,2.84,15.47,4.9,4.56,1.85,9.23,3.51,13.65,5.66,7.54,3.67,15.07,7.35,21.92,12.36,3.52,2.58,7.29,4.89,11,7.31,2.36,1.55,4.1,3.69,6.29,5.33a96.81,96.81,0,0,1,10.81,8.88,228.1,228.1,0,0,1,21,23.76,186.52,186.52,0,0,1,14.6,22c3.32,6.06,6.77,12.14,9,18.77a5,5,0,0,0,2.61,3.28c7.78-1.36,15.91,1.23,24.11.71,7.1-.45,14,1.69,21.09,1.05a1,1,0,0,1,.5,0c3.21,1.79,6.64.66,9.92,1.06a35.89,35.89,0,0,1,3.67-9.84,94,94,0,0,1,8.48-14c3.22-4.41,6.73-8.54,10.15-12.77,1.78-2.21,4.44-3.27,6.33-5.28,3.64-3.87,8.23-6.55,12.77-9,8-4.4,16-8.94,25.3-10.1,1.43-2,3.87-.69,5.78-1.82,1.55-.92,4-.32,6-1s4.29-.23,6.45-.12c6.87.32,13.75-.67,20.61.89,4,.9,8.06,1.19,11.89,2.73,1.43.57,3,.89,4.43,1.36a75.81,75.81,0,0,1,21.22,10.33c5,3.54,10,6.93,14.29,11.34a3.36,3.36,0,0,0,3.27,1.3c3-4.05,5.54-8.34,9-11.84,7.66-7.64,14.91-15.71,23.86-22,4.89-3.43,9.82-6.8,15-9.79s10.69-5.54,16.11-8.17a49.2,49.2,0,0,1,7.69-3.13c7.93-2.29,15.64-5.49,24-6.05,5-2.38,10.54-1.88,15.79-2.82,4.68-.84,9.64-.34,14.47-.13s9.45-.87,14.12.87a9.44,9.44,0,0,0,4.95,0c2-.41,3.23,1.78,5.1,1.06s2.86,1.29,4.59,1.07a12.9,12.9,0,0,1,4.63.74c2.43.61,4.77,1.69,7.14,2.08,8.4,1.36,15.91,5.18,23.59,8.32A101,101,0,0,1,396.88,331c7.34,4.88,14.66,9.75,20.81,16.17,4,4.22,8.2,8.3,12.36,12.39,3.56,3.5,6,7.83,9,11.78,2.82,3.78,5.17,7.84,7.71,11.8,3.2,5,5.47,10.42,8.15,15.65,1.51,3,2.4,6.31,3.73,9.44a73.13,73.13,0,0,1,3.22,10.16,137.65,137.65,0,0,1,3.07,13.71,10.07,10.07,0,0,0,2.61,5.95c8-.56,15.22,2.51,22.4,5.11s13.89,7.05,20.08,12.12a9.51,9.51,0,0,0,3-3.21,21.86,21.86,0,0,1,4.31-5.65c6.29-6.29,12-13.13,19.23-18.55A129.55,129.55,0,0,1,552,418a135.9,135.9,0,0,1,15.16-6.85c4.19-1.67,8.64-2.35,12.81-4.07,1.63-.66,3.69-.51,5.57-1s3.7-.44,5.59-1c2.17-.6,4.65-.3,7-.1s4.21-1.45,6.6-1.1c3.17.47,6.36-.08,9.62.91s6.82-.58,10,1.15c6.43-.09,12.23,2.66,18.35,4,1.33.29,2.41,1.8,4,.81a5.5,5.5,0,0,1,.73-1.67c.52-.56.39-1.2.6-1.78a78.47,78.47,0,0,0,2.24-9.07c.68-3,3-5.53,2.79-8.84,2.57-4.43,3.48-9.65,6.16-13.92,1.84-2.93,1.88-6.75,4.77-9.05-.86-2.37,1.58-3.36,2.32-5s1.92-3.58,2.89-5.32a152.49,152.49,0,0,1,9-13.72,127.91,127.91,0,0,1,12-15c9.41-9.79,18.93-19.44,30.08-27.4a229.61,229.61,0,0,1,20.54-13.27,121.09,121.09,0,0,1,15-7.23c6-2.38,11.9-5,18.09-7.05a212.05,212.05,0,0,1,25.8-6.59c2.57-.49,5.35-.06,7.53-1a11.24,11.24,0,0,1,5.66-.72c2.19.13,3.91-1.23,6.1-1.15,14.23.53,28.53-1,42.69,1.93a113,113,0,0,0,11.17,1.95c6.48.69,12.55,2.86,18.7,4.53,8.45,2.28,16.53,5.91,24.47,9.67a151.12,151.12,0,0,1,14.85,7.56c4.68,2.9,9.74,5.33,13.62,9.42,9.26,5.09,16.69,12.51,24.34,19.57,4.69,4.33,8.42,9.66,13.17,14a2.9,2.9,0,0,1,.69.71c2.28,4.74,6.93,7.85,8.85,12.83,2.22,1.54,2.58,4.37,4.28,6.22a39.56,39.56,0,0,1,6,9.52c4.48,9.12,9.11,18.15,12.5,27.83,2.11,6,4,12,5.62,18.16.87,3.2,1.22,6.58,2.19,9.61a69.33,69.33,0,0,1,2.51,14.36c.5,5,2.07,9.88,1.19,15,1.64,0,2.5,1,3.8,1.32,5.3,1.11,10.3,3.29,15.21,5.47a89.08,89.08,0,0,1,20.77,12.64c1.39,1.15,2.81,1.16,3.74-.19a61.08,61.08,0,0,0,4.51-7.13c2.64-5.29,7.16-9.23,10-14.35,9.07-8.32,16.8-18,27-25.23,6.43-4.54,13.17-8.46,19.81-12.62,2.65-1.66,5.81-2.23,8.42-3.78a56.84,56.84,0,0,1,10.56-4.69,81.56,81.56,0,0,1,11.64-3.44c3.41-.62,6.9-1.72,10.32-2.7a44.49,44.49,0,0,1,10.66-1.85c5.07-.14,10-1.4,15.08-1.19,6.19.26,12.36-.29,18.62.76,5,.84,10.1,1.28,15.16,2.07a117.86,117.86,0,0,1,17.29,4.22c3.51,1.09,7.33,1.61,10.21,4.11V530H-140c-1.5,0-3.47-.6-4.39.13-1.6,1.27-3.19,1-4.69.79-2.42-.25-4.76-1.87-7.2,0a1.57,1.57,0,0,1-1.39-.16c-1.65-1.12-3.07-1-4.84,0-1,.59-3,.69-3.83,0-1.86-1.53-3.81-.85-5.67-.85Q-413,530-654,530Z" transform="translate(654 -257)"/><path class="cls-2" d="M851,257c0,1.38,1.07.91,1.79,1,2.08.25,4.26-.55,6.27.56s4.83-.56,6.62.81,4.44-.61,5.86,1.63a40,40,0,0,1,6.62.81c3.26.61,6.22,2.08,9.53,2.52a38.69,38.69,0,0,1,9.78,2.86c3,1.27,6.09,2.18,9,3.53,4,1.84,8.26,3.35,12.29,5.29s8.13,3.79,12,6a205,205,0,0,1,19,12.17,199.3,199.3,0,0,1,15.8,12.65c4.38,4,9,7.76,12.86,12.18,6.24,7.08,12.56,14.09,17.66,22.13,2.6,4.1,5.39,8.09,8.08,12.13,3.39,5.11,5.61,10.72,8.53,16,4.55,8.26,7.19,17.34,10.36,26.19,2,5.57,2.69,11.47,4.83,17a23,23,0,0,1,.89,5.56c.34,3,1.12,6,1.45,9a81.57,81.57,0,0,1,.74,10.11c0,1.67,1.76,2.76,1,4.3A140,140,0,0,1,1066,458c1.16-.34,1.52-1.26,2.13-2.28,1.8-3,4.15-5.61,6.11-8.49a177.93,177.93,0,0,1,11.45-14.19c2.92-3.44,5.8-7.17,10-9.34a11.47,11.47,0,0,0,2.5-2.43c3.37-3.49,7.42-6.19,11.23-9.13,3.59-2.76,7.56-5,11.39-7.46,1-.66,2.2-1.12,3.29-1.7,1.77-1,3.79-1.66,5.22-3s4.09-.45,4.9-2.75c2.73-.31,4.77-2.37,7.22-3.05,4.33-1.22,8.27-3.46,12.75-4.29,4-.74,7.72-2.31,11.73-3.14,3.43-.71,7.06-1.15,10.38-2.57a4.9,4.9,0,0,1,1.92-.2c4.39.05,8.64-1.69,13.08-1,5.6-1.95,11.41-.44,17.07-1.07,2.55-.28,4.56,1.35,7.1,1.19,2.31-.14,4.88-1,7.12.82.51.41,1.62,0,2.46.06,3.18.1,6.18,1.37,9.26,1.68,5.06.51,9.81,2.19,14.62,3.47s9.56,2.61,13.8,5.21c1.15.7,2.16.49,3.25.64V534H-654v-4q241,0,482,0c1.86,0,3.81-.68,5.67.85.79.64,2.85.54,3.83,0,1.77-1.07,3.19-1.16,4.84,0a1.57,1.57,0,0,0,1.39.16c2.44-1.91,4.78-.29,7.2,0,1.5.16,3.09.48,4.69-.79.92-.73,2.89-.13,4.39-.13H1258.75V399.19c-2.88-2.5-6.7-3-10.21-4.11a117.86,117.86,0,0,0-17.29-4.22c-5.06-.79-10.17-1.23-15.16-2.07-6.26-1.05-12.43-.5-18.62-.76-5.06-.21-10,1.05-15.08,1.19a44.49,44.49,0,0,0-10.66,1.85c-3.42,1-6.91,2.08-10.32,2.7a81.56,81.56,0,0,0-11.64,3.44,56.84,56.84,0,0,0-10.56,4.69c-2.61,1.55-5.77,2.12-8.42,3.78-6.64,4.16-13.38,8.08-19.81,12.62-10.21,7.21-17.94,16.91-27,25.23-2.85,5.12-7.37,9.06-10,14.35a61.08,61.08,0,0,1-4.51,7.13c-.93,1.35-2.35,1.34-3.74.19a89.08,89.08,0,0,0-20.77-12.64c-4.91-2.18-9.91-4.36-15.21-5.47-1.3-.28-2.16-1.33-3.8-1.32.88-5.08-.69-10-1.19-15a69.33,69.33,0,0,0-2.51-14.36c-1-3-1.32-6.41-2.19-9.61-1.67-6.12-3.51-12.15-5.62-18.16-3.39-9.68-8-18.71-12.5-27.83a39.56,39.56,0,0,0-6-9.52c-1.7-1.85-2.06-4.68-4.28-6.22-1.92-5-6.57-8.09-8.85-12.83a2.9,2.9,0,0,0-.69-.71c-4.75-4.34-8.48-9.67-13.17-14-7.65-7.06-15.08-14.48-24.34-19.57-3.88-4.09-8.94-6.52-13.62-9.42A151.12,151.12,0,0,0,916.09,281c-7.94-3.76-16-7.39-24.47-9.67-6.15-1.67-12.22-3.84-18.7-4.53a113,113,0,0,1-11.17-1.95c-14.16-3-28.46-1.4-42.69-1.93-2.19-.08-3.91,1.28-6.1,1.15a11.24,11.24,0,0,0-5.66.72c-2.18,1-5,.54-7.53,1a212.05,212.05,0,0,0-25.8,6.59c-6.19,2-12.07,4.67-18.09,7.05a121.09,121.09,0,0,0-15,7.23A229.61,229.61,0,0,0,720.34,300c-11.15,8-20.67,17.61-30.08,27.4a127.91,127.91,0,0,0-12,15,152.49,152.49,0,0,0-9,13.72c-1,1.74-2.12,3.55-2.89,5.32s-3.18,2.67-2.32,5c-2.89,2.3-2.93,6.12-4.77,9.05-2.68,4.27-3.59,9.49-6.16,13.92.2,3.31-2.11,5.83-2.79,8.84a78.47,78.47,0,0,1-2.24,9.07c-.21.58-.08,1.22-.6,1.78a5.5,5.5,0,0,0-.73,1.67c-1.59,1-2.67-.52-4-.81-6.12-1.32-11.92-4.07-18.35-4-3.22-1.73-6.88-.2-10-1.15s-6.45-.44-9.62-.91c-2.39-.35-4.27,1.31-6.6,1.1s-4.79-.5-7,.1c-1.89.53-3.8.49-5.59,1s-3.94.35-5.57,1c-4.17,1.72-8.62,2.4-12.81,4.07A135.9,135.9,0,0,0,552,418a129.55,129.55,0,0,0-15.46,9.81c-7.18,5.42-12.94,12.26-19.23,18.55a21.86,21.86,0,0,0-4.31,5.65,9.51,9.51,0,0,1-3,3.21c-6.19-5.07-12.75-9.47-20.08-12.12s-14.41-5.67-22.4-5.11a10.07,10.07,0,0,1-2.61-5.95,137.65,137.65,0,0,0-3.07-13.71,73.13,73.13,0,0,0-3.22-10.16c-1.33-3.13-2.22-6.48-3.73-9.44-2.68-5.23-4.95-10.67-8.15-15.65-2.54-4-4.89-8-7.71-11.8-3-3.95-5.41-8.28-9-11.78-4.16-4.09-8.33-8.17-12.36-12.39-6.15-6.42-13.47-11.29-20.81-16.17a101,101,0,0,0-17.45-9.78c-7.68-3.14-15.19-7-23.59-8.32-2.37-.39-4.71-1.47-7.14-2.08a12.9,12.9,0,0,0-4.63-.74c-1.73.22-2.81-1.76-4.59-1.07s-3.14-1.47-5.1-1.06a9.44,9.44,0,0,1-4.95,0c-4.67-1.74-9.42-.68-14.12-.87s-9.79-.71-14.47.13c-5.25.94-10.8.44-15.79,2.82-8.36.56-16.07,3.76-24,6.05a49.2,49.2,0,0,0-7.69,3.13c-5.42,2.63-10.91,5.16-16.11,8.17s-10.08,6.36-15,9.79c-8.95,6.28-16.2,14.35-23.86,22-3.5,3.5-6,7.79-9,11.84a3.36,3.36,0,0,1-3.27-1.3c-4.25-4.41-9.33-7.8-14.29-11.34A75.81,75.81,0,0,0,150.6,348c-1.47-.47-3-.79-4.43-1.36-3.83-1.54-7.93-1.83-11.89-2.73-6.86-1.56-13.74-.57-20.61-.89-2.16-.11-4.51-.55-6.45.12s-4.47.12-6,1c-1.91,1.13-4.35-.14-5.78,1.82-9.31,1.16-17.33,5.7-25.3,10.1-4.54,2.5-9.13,5.18-12.77,9-1.89,2-4.55,3.07-6.33,5.28-3.42,4.23-6.93,8.36-10.15,12.77a94,94,0,0,0-8.48,14,35.89,35.89,0,0,0-3.67,9.84c-3.28-.4-6.71.73-9.92-1.06a1,1,0,0,0-.5,0c-7.07.64-14-1.5-21.09-1.05-8.2.52-16.33-2.07-24.11-.71A5,5,0,0,1-29.51,401c-2.2-6.63-5.65-12.71-9-18.77a186.52,186.52,0,0,0-14.6-22,228.1,228.1,0,0,0-21-23.76,96.81,96.81,0,0,0-10.81-8.88c-2.19-1.64-3.93-3.78-6.29-5.33-3.67-2.42-7.44-4.73-11-7.31-6.85-5-14.38-8.69-21.92-12.36-4.42-2.15-9.09-3.81-13.65-5.66-5.06-2.06-10.33-3.24-15.47-4.9a141.08,141.08,0,0,0-16.33-4.05c-4.71-.92-9.48-1.35-14.15-2.17a48.07,48.07,0,0,0-11.12-.65c-4,.23-7.65-1.24-11.59-1.24-3.3,0-6.26,1.54-9.59,1.2-3.14-.32-6.5-.71-9.46.07-5.06,1.33-10.51.35-15.29,2.86-5.7-.48-10.79,2.26-16.24,3.13-3.29.53-6.45,2.08-9.7,3.09-6.32,2-12.36,4.71-18.48,7.26-8.52,3.55-16.33,8.19-24.09,13.1a204.45,204.45,0,0,0-17.71,12.77c-6.42,5.07-12.8,10.22-18.14,16.38-4.51,5.21-9.46,10.11-13.17,16-3.66,2.41-4.37,7.16-7.74,9.82-.26.21.17,1-.48,1.36a8.43,8.43,0,0,1-4-.72,71.36,71.36,0,0,0-18.47-6c-3.55-.67-7.22-1.69-11.05-1.3s-7.76-.46-11.47.23c-4,.74-8.26.64-12.13,2-6.23,2.23-12.54,4.35-18.26,7.82-4.76,2.89-9.54,5.71-13.45,9.79-4.39,4.57-9,8.88-12.42,14.35-3,4.76-5.08,9.92-7.83,15-3.79-2-7.6-4.08-11.38-6.15s-8.13-2.94-12.33-4-8.72-.92-13.1-1a48.15,48.15,0,0,0-13.17,2c-4.11,1.13-8,2.9-12.83,4.63,1.27-4.38-1.07-7.47-.63-10.9-2-2.76-1.84-6.23-2.82-9.32-1.94-6.1-4.86-11.68-7.66-17.34a67.56,67.56,0,0,0-12.34-17.39c-2.1-2.14-4.26-4.22-6.35-6.37-7.73-7.95-17.19-13.33-27.09-17.91a48,48,0,0,0-7.77-3c-2.53-.67-5.35-.53-7.49-2.42-3,.67-5.82-.6-8.54-1.19-6.57-1.41-13.1-.47-19.63-.79a44.38,44.38,0,0,0-13.67,2,6.41,6.41,0,0,1-1.64,0v-6c5-1.06,10-2.23,15.17-2,3.16.12,6.34.08,9.5,0,5.17-.13,10.14,1.19,15.2,1.8,6.8.83,13,3.33,19.32,5.44a66.31,66.31,0,0,1,13.62,6.95c3.47,2.16,6.94,4.29,10.2,6.77a6.51,6.51,0,0,1,1.17.74c3.13,3.61,7.52,5.82,10.56,9.53,5.12,6.27,10.19,12.56,14.28,19.59a120.76,120.76,0,0,1,9.69,22.48c1.14,3.38,1.63,7,2.52,10.93,18.83-7.13,36.83-5.15,54.64,4.59,3.15-5.89,6.26-12.21,11.15-17.27,5.14-5.34,10-11.12,16.25-15.12A84.43,84.43,0,0,1-432.15,362c6.66-2.22,13.41-4.51,20.42-4.9,7.34-.4,14.77-.73,22.08.86a100.68,100.68,0,0,1,19.81,6.3c4.1-3.71,6.53-8.32,9.79-12.26.24-.29.4-.82.7-1.19a224.82,224.82,0,0,1,19.86-20.73,197.83,197.83,0,0,1,16.42-13.44c4.51-3.36,9.37-6.26,14.16-9.23a208,208,0,0,1,22.67-11.65c6.22-2.88,15.56-7,24.35-8.83,3.8-.78,7.27-2.88,11.27-3,1.54-2.23,4.62.25,6.17-2,3,.67,5.63-1.59,8.58-1,2.19.45,3.86-1.41,6.1-1.1,1.84.25,3.83.51,5.63-.84.64-.48,1.94-.08,2.94-.08,10.34,0,20.67.09,31-.07,2.18,0,4.06.71,6.08,1.08s3.89-.79,5.67.89c.53.5,1.93.15,2.92.09a8.61,8.61,0,0,1,4.62.95c1.23.61,2.77.31,4.2.62,3.52.76,7,1.52,10.52,2.44a201.48,201.48,0,0,1,19.93,6.2c4.9,1.87,9.52,4.39,14.59,5.85,1.44.42,3.34,1.19,4,2.08,1.55,2,4.15,1.55,5.8,3.31,1.27,1.35,3.74,1.48,5.33,2.63,4,2.86,8.38,5,12.23,8,1.54,1.23,3.4,2.23,5.06,3.35,3.58,2.4,6.74,5.43,10.21,8,7.34,5.47,13,12.65,19.76,18.72,2.34,2.11,3.59,5,5.95,7.07s3.43,5,5.42,7.2c3.47,3.8,5.94,8.25,8.82,12.41,4.4,6.38,7.79,13.36,11.15,20.36,1.26,2.63,2.22,5.51,4.28,7.71,4.92,0,9.65,1.49,14.6,1.16s9.66,0,14.49-.12c2.15-.06,3.85,1.38,6.1,1.16,2-.18,4-.39,6.17.7,1.86.92,4.55.19,7.09.19,2.65-9.11,8.57-16.47,13.21-24.52,5.22-4.64,8.63-11,14.69-14.93,3.29-2.16,6.17-5.08,9.52-7.28,7.8-5.12,16-9.54,24.93-12.24a157.18,157.18,0,0,1,18.3-4.23c7.76-1.35,15.46-.92,23.11-.6,6.82.29,13.58,2.18,20.24,4.06,7.19,2,13.78,5.41,20.35,8.8a57.71,57.71,0,0,1,13.66,9.28c1.53,1.47,3.11,2.77,5.36,2.66,2.94-1.49,3.89-4.71,6.1-6.84,5-4.86,9.75-10.06,14.93-14.77A140.94,140.94,0,0,1,227.1,327a179.39,179.39,0,0,1,24.59-13.09,137.16,137.16,0,0,1,20.12-7c4.94-1.37,10-2.21,14.92-3.75,2.35-.74,5-.4,7.58-1,5.43-1.2,26.43-1.83,31-1,2.54.45,5.08.61,7.58,1s5.19.38,7.57,1c4.83,1.28,9.8,1.77,14.6,3.31,5.74,1.83,11.52,3.54,17.21,5.54.45.15,1,0,1.4.24,4.94,3.24,10.79,4.59,15.82,7.71,6.51,4,13.29,7.64,19.38,12.37,4,3.07,7.81,6.23,11.6,9.5a81.62,81.62,0,0,1,6.55,5.77c7.48,8,14.69,16.24,20.42,25.55,4.29,7,8.72,13.93,11.78,21.6.85,2.15,2.13,4.17,2.67,6.38.59,2.45,2,4.52,2.68,6.91.65,2.2.72,4.67,2.4,6.5-.21,3.56,1.41,6.78,2.18,10.13a51.12,51.12,0,0,1,.85,5.86,8.26,8.26,0,0,0,5.7,2.56c4.19.44,8.13,2,12.11,3.31A77.1,77.1,0,0,1,508.46,447c.12.08.32,0,1,.09,2.74-3.17,5.85-6.43,8.52-10,1.49-2,3-4.14,5-5.3,3.71-2.15,6.21-5.56,9.62-8a139.41,139.41,0,0,1,23.61-14.3,110.91,110.91,0,0,1,16-5.95c3.58-1,7.15-2.54,11-2.43,1.65.05,2.81-1.45,4.6-1.08a7.27,7.27,0,0,0,4.13-.79c1.57-.64,3.62,0,5.44-.18,2.87-.23,5.87.85,8.61-.93a2.23,2.23,0,0,1,2,0c2.41,1.6,5.08.66,7.61,1,2.23.28,4.5-.67,6.72.67,1.92,1.15,4.59-.65,6.45,1.31,3.92-.43,7.34,2,11.17,2,1.1,0,1.35,1.67,2.61,1,2-3.21,2.3-7,3.49-10.51,1.64-4.82,3.3-9.61,5.24-14.33,1.35-3.27,2.67-6.67,4.23-9.73s3.21-6.37,5-9.43c3.85-6.45,7.48-13,11.89-19.12,3.31-4.62,7.08-8.92,10.07-13.78a17.54,17.54,0,0,1,2.09-2.14c2.11-2.31,4.48-4.36,6.5-6.78,1.82-2.16,4.12-3.91,6.16-5.89,2.27-2.21,4.61-4.36,6.69-6.74,1.64-1.88,3.79-3,5.7-4.48,4.8-3.62,9.23-7.74,14.52-10.73,4.34-2.45,8.41-5.35,12.76-7.8,3.65-2.06,7.28-4.11,11-6,6.36-3.14,13.22-5.13,19.49-8.46,6.74-.67,12.79-3.84,19.35-5.29,5.46-1.2,11-2.6,16.43-3.56,4.21-.74,8.6-1.91,13-1.27.69.1,1.74.37,1.76-1Z" transform="translate(654 -257)"/></svg>