<svg data-name="小云" xmlns="http://www.w3.org/2000/svg" viewBox="0 0 1560.04 244.48"><defs><style>.cls-1{fill:#c6d7db;}</style></defs><title>小云</title><path class="cls-1" d="M-473,521c1.49-22.61,9.88-42.54,23.76-60.2,19-24.17,44.19-38.1,74.3-42.44,24.09-3.47,47.26.94,69,12.23a20.27,20.27,0,0,1,2.58,1.44c3.19,2.32,4.44,1.25,5.7-2.31a230.88,230.88,0,0,1,45.07-76.85c27.86-31.41,61.89-52.88,101.51-65.94,28.85-9.51,58.65-11.85,88.62-9.64,26.26,1.93,51.47,8.87,75.58,19.95,27.16,12.48,51.12,29.23,71.5,51A223,223,0,0,1,129,418.48a226,226,0,0,1,15.89,96c-.16,3.47.88,5.48,4.07,6.5Z" transform="translate(473 -276.52)"/><path class="cls-1" d="M351,521c.84-5.71,5-9.65,7.93-14.15,9.6-14.86,21.59-27.77,34.56-39.75A57.09,57.09,0,0,0,406.09,450,213.47,213.47,0,0,1,453.9,386.7c32-29.34,69.46-48,112-56.35,11-2.16,22.29-3,33.6-3.56,30.11-1.47,59.17,3.32,87.37,13.4a217.83,217.83,0,0,1,52.24,27,231.19,231.19,0,0,1,33.55,28,200.75,200.75,0,0,1,33.64,45.48c2,3.74,3.2,3.35,5.22.19a141.6,141.6,0,0,1,114.46-65c26-.86,50.55,4.54,73.41,16.87,26.35,14.2,50,31.76,66.14,57.6a137.85,137.85,0,0,1,20.57,59.77c.37,3.63,1.14,7.21.92,10.89Z" transform="translate(473 -276.52)"/><path class="cls-1" d="M151,521c.06-2.43,2.26-2.24,3.64-2.7a169.85,169.85,0,0,1,63.86-8.12A160.86,160.86,0,0,1,260.4,518c1.68.57,4.25.18,4.6,3Z" transform="translate(473 -276.52)"/><path class="cls-1" d="M268,521c.33-.82.67-.72,1,0Z" transform="translate(473 -276.52)"/></svg>