<svg data-name="滑板" xmlns="http://www.w3.org/2000/svg" viewBox="0 0 563.39 274.83"><defs><style>.cls-1{fill:#3fd9b0;}.cls-2{fill:#72b4fb;}.cls-3{fill:#67a1e1;}.cls-4{fill:#6daaed;}.cls-5{fill:#3893a4;}.cls-6{fill:#507eb1;}.cls-7{fill:#67a3e3;}.cls-8{fill:#6caaed;}.cls-9{fill:#72b3f9;}.cls-10{fill:#6faef2;}.cls-11{fill:#41a787;}.cls-12{fill:#69a4e5;}.cls-13{fill:#5687bd;}.cls-14{fill:#6094cd;}.cls-15{fill:#598bc2;}.cls-16{fill:#41ba98;}.cls-17{fill:#5c8ec5;}.cls-18{fill:#57a3c2;}.cls-19{fill:#51a793;}.cls-20{fill:#3fbd9a;}.cls-21{fill:#629ad8;}.cls-22{fill:#6097d3;}.cls-23{fill:#3894a5;}.cls-24{fill:#6dabee;}.cls-25{fill:#5099c1;}.cls-26{fill:#5686bd;}.cls-27{fill:#8dbef4;}.cls-28{fill:#9dcafc;}.cls-29{fill:#99c8fa;}.cls-30{fill:#71b1f7;}.cls-31{fill:#639bd9;}.cls-32{fill:#499abc;}.cls-33{fill:#6098d4;}.cls-34{fill:#5e96d0;}.cls-35{fill:#5a8dc6;}.cls-36{fill:#6ca9ec;}.cls-37{fill:#5a8f85;}.cls-38{fill:#479bba;}.cls-39{fill:#4398b4;}.cls-40{fill:#5da4d8;}</style></defs><title>滑板</title><path class="cls-1" d="M207.27,494.74c11.5,13.61,4.78,33.76-12.81,38.66-1.5.41-3.44-.19-4.46,1.6h-8c-.39-1.64-2.29-.66-3-1.73-1.37-2-4-2.91-5-5.28,0-2.64,1.6-5.1.86-7.82-1.25-4.6.65-8.69,2.25-12.76,2.63-6.68,8.92-9.93,13.88-14.41,4,.12,8.07-.9,11.5,2.49C203.69,496.66,205.9,496.48,207.27,494.74ZM193.8,506.36c.16-1.13.6-2.5-1.13-3.16-2.31-.87-8.29,3.24-8.38,5.75-.14,4.3,4.58,10,8.92,10.53,3.07.34,5.61-.8,6.45-4,.7-2.7.21-4.67-3.31-5.12C195.17,510.18,192.59,509.16,193.8,506.36Z" transform="translate(-25.77 -260.17)"/><path class="cls-2" d="M546,264.23c18.32,6.15,30.82,17.88,38.62,36,7.32,17,4.77,32.92-.34,49.34-.82,2.62-3.24,4-4.21,6.41a7.62,7.62,0,0,0-4.1,1.42c-8.33,5.23-16,11.55-24.41,16.47-11,6.42-22.28,13-35.48,14.25a8.37,8.37,0,0,0-5.33.89c-7.37,3.94-15.76,4.7-23.62,6.61-10.34,2.51-20.45,5.9-30.91,8.06a292.86,292.86,0,0,0-34.06,9.57c-3.72,1.25-9-.27-11.12,4.8h0c-3.75-2.68-6.94.11-10.38,1-8,2.05-16,3.81-23.62,7h0c-3.62-.31-6.73,1.43-10,2.55-8.17,2.84-16.68,4.34-25,6.43-1.39.86-2.65,1.92-4.53,1-.93-.45-2-.73-2.1-1.83s.73-1.79,1.77-2.05c1.39-.35,3.41-.08,3.4-2.13s-2.16-2.69-3.62-2.83c-6.76-.67-12.49-4.09-18.6-6.53-1.54-.61-3.14-1.49-4.72-1.49-4.73,0-6.77-4.5-10.61-6-1.33-.51-1.28-2.16.19-3.23,1-.74,2.61-.79,3.14-2.52-3.34-.83-3.87-3.08-3-6.06s-.5-7.65,5-7.95c.24,0,.49-1.13.63-1.76.57-2.55,1.1-5.11,1.73-8.08l-7,1c-1.36.2-2.57-.21-2.19-1.75.6-2.41,9.87-4,11.36-1.92,2.68,3.73,6.28,5.13,10.73,5.1a34.77,34.77,0,0,1,15.59,4c5.61,2.91,10.73,4.37,16.76,4,3.87-.24,4.26-2.28,2.49-4.95-2.43-3.66-1.3-7.33.41-10.35a50.09,50.09,0,0,0,3.88-9.12c1.69-5,1.52-7.11-3.87-7.86-1.45-.2-1.9-1.73-2.4-3-.3-.76.14-1.66.68-1.54,3.45.77,4.71-3.57,7.89-3.28a16.78,16.78,0,0,1,3.49.17c14.73,3.91,29.41,1.68,43.81-1.35,9.66-2,19.76-4.17,27.22-11.79.92-.94,1.85-2,3.33-2a10.49,10.49,0,0,1,7.65.33c3.57,1.4,2.67,3.72,1.85,6.34-.25.8.41,1.89.63,2.85s.56,2.09,1.83,1.88,2.77-.19,3.51-1.52-.47-1.59-1.33-2c-1.15-.6-1.08-1.57-.52-2.52.46-.78,1.4-1.36,2.08-.84,5.29,4,14.35-2,17.84,6.74.27.65,1.13.44,1.79.23,7.24-2.28,14.39,1,21.83.25,8.46-.83,17.27,1.27,26,.32,4.18,4,7.34,9.1,12.65,12l-6.73-8.9a62.26,62.26,0,0,0,15.18-11.44c3.91-4.16,4-7-.65-10-1.42-.91-2.94-1.92-1.79-4,1.79-3.21,2.08-5.59-2.58-6.22-1.3-.18-2.85-1.64-1-2.73,3.67-2.15,3.41-5.62,4.18-9,1.27-5.63-.78-12.2,4.49-16.79a1.59,1.59,0,0,0,.07-1.44c-2.66-5.76.16-11.61-.16-17.43-.18-3.33-.19-5-3.85-5.13-2.28-.08-3.13-1.18-1.21-3.1A3.82,3.82,0,0,0,546,264.23Z" transform="translate(-25.77 -260.17)"/><path class="cls-3" d="M92,376.46c14.59-3.83,29.1-8,43.82-11.35,9.84-2.21,19.6-4.9,29.33-7.41,10.22-2.64,20.5-5.35,30.7-8.24,20.06-5.68,40.32-10.68,60.45-16.16a133.44,133.44,0,0,1,15.52-3.41c4.95,6.83,14.53,5.86,20,11.84.26.28.95.16,1.44.26,8.94,1.89,17.43,4.79,24.81,10.43,5.17,3.94,5.05,3.9.29,7.88-3,2.5-3.44.43-4.52-1.52-.61-1.11-1.29-2.5-3-2.07a1.93,1.93,0,0,0-1.69,1.6c-.16,1.4.76,2.08,1.82,2.69a9.28,9.28,0,0,1,1.61,1.16c.62.57,1.23,1.22.42,2.09a1.22,1.22,0,0,1-1.78.22c-2.25-2.26-4.14-1.05-6.11.42-1.47,1.1-2.76.21-4.14-.47-5.22-2.57-10.24-6.66-16.33-1.41-1.49,1.29-4.5,2.75-4.06-2,.16-1.7-1.83-4.67-3-3.63-2.4,2.23-6,3.76-7.3,6.34-3.36,6.61-1.22,10.43,5.77,13.41,2.45,1.05,4.88.74,7.35.89,1.27.08,3.22-.33,3.24,1.42.05,2.89,1.41,5.5.44,8.73-1.34,4.5-5.32,8.73-2.27,14.16.91,1.63-.23,3.18-2.39,4.1-3.71,1.57-7.95,2.27-10.29,6.47-1.14,2-3.92,1.26-6,.65s-4.05-1.48-6.13-2c-3.59-.87-5.51-2.8-5.08-6.71.31-2.85-.48-4.5-3.92-5-6.07-.85-8.67-4.2-8.9-10.53-.06-1.71-.8-.91-1.42-.73-1.5.45-2.48-.73-3.72-1.07-5.2-1.44-8.07-5.47-10.64-9.71-3.37-5.54-10.94-7.92-11.58-15.5a1.51,1.51,0,0,0-1.88-1.25c-4.36.77-6.84-2.07-9.14-4.89-1.67-2.05-3.64-1.73-5.35-1-2.19,1-4,3.12-3.26,5.54.62,2.08-.86,4.95,2.09,6.29,4.83,2.18,7.51,8.94,4.89,13.59-1.44,2.57-1,3.53,1.43,4.4.59.21,1.62.77,1.58,1-1.06,4.73,4.45,5.85,4.73,9.94,2.16-1.4,3.43-4.34,5.86-2.33,2.62,2.17.45,4.3-1,6-1.22,1.43-1.26,2.39-.2,3.86a2.11,2.11,0,0,1-.39,3.12c-1.21.75-2.06-.15-2.88-1.13-2.79-3.37-10.31-3.6-13.32-.35-3.28,3.55-8.28,2.43-12.16,4.64-1.9,1.08-3.33-2.24-5.12-3.35-.95-.59-2.09-1.85-2.8-1.65-1.61.46-.63,2.29-1,3.47a3.67,3.67,0,0,0-.87-.2,13.1,13.1,0,0,0-1.15-2.65,123.29,123.29,0,0,0-20.48-22.42c-3.06-2.6-5.51-6.77-10.36-6.94-2.66-1.07-6.06-3.55-8-.83-2.22,3.09-3.57,6.9-1.22,11.49,1.82,3.54,3.58,7,5.67,10.38,4.82,7.88,10.31,15.38,14.53,23.58,2.53,4.9,7.3,8.52,8.06,14.37-3.21,2.93-5.59,7.88-10.25,7.77-5.72-.13-8.08,2.15-8.79,7.27-6-8.67-11.83-17.45-18-26-3.1-4.26-6.32-7.95.21-11.94,1.26-.76,1-2.46-.22-3.42s-2.14,0-2.8,1c-2.53,4-4.9,2.26-7.09-.28A53.1,53.1,0,0,1,113,405c-5.56-8.12-11.16-16.2-16.64-24.37-1.13-1.68-2-3.53-4.32-3.64C92,376.82,92,376.64,92,376.46Zm90.73-14c-3.53,2.15-5.71,1.42-5.91-1.92-.09-1.47-.06-2.83-1.61-3.11a3.58,3.58,0,0,0-2.61,1.1c-1.07,1,.25,2.08.34,3.09.28,3.17,5.15,5.3,2.09,9.49C177.68,368.23,182.12,367.32,182.74,362.42ZM157.42,369c2.94,0,3.4-2.11,3.58-4.35s-1.48-3.45-3.38-3.39c-2.54.07-3.63,1.94-3.62,4.42C154,367.93,155.2,369,157.42,369Zm55.91-19.46c-2.34,1.07-6.41-.59-6.26,4a2.39,2.39,0,0,0,2.59,2.45C214.16,355.94,212.56,352.05,213.33,349.52Z" transform="translate(-25.77 -260.17)"/><path class="cls-4" d="M176.87,408.21c.4-1.19-.58-3,1-3.48.71-.2,1.85,1.06,2.8,1.65,1.79,1.11,3.22,4.43,5.12,3.35,3.88-2.21,8.88-1.09,12.16-4.64,3-3.25,10.53-3,13.32.35.82,1,1.67,1.88,2.88,1.13a2.11,2.11,0,0,0,.39-3.12c-1.06-1.47-1-2.43.2-3.86,1.43-1.67,3.6-3.8,1-6-2.43-2-3.7.93-5.86,2.33-.28-4.09-5.79-5.21-4.73-9.94,0-.21-1-.77-1.58-1-2.45-.87-2.87-1.83-1.43-4.4,2.62-4.65-.06-11.41-4.89-13.59-2.95-1.34-1.47-4.21-2.09-6.29-.72-2.42,1.07-4.56,3.26-5.54,1.71-.76,3.68-1.08,5.35,1,2.3,2.82,4.78,5.66,9.14,4.89a1.51,1.51,0,0,1,1.88,1.25c.64,7.58,8.21,10,11.58,15.5,2.57,4.24,5.44,8.27,10.64,9.71,1.24.34,2.22,1.52,3.72,1.07.62-.18,1.36-1,1.42.73.23,6.33,2.83,9.68,8.9,10.53,3.44.48,4.23,2.13,3.92,5-.43,3.91,1.49,5.84,5.08,6.71,2.08.51,4.07,1.38,6.13,2s4.87,1.39,6-.65c2.34-4.2,6.58-4.9,10.29-6.47,2.16-.92,3.3-2.47,2.39-4.1-3.05-5.43.93-9.66,2.27-14.16,1-3.23-.39-5.84-.44-8.73,0-1.75-2-1.34-3.24-1.42-2.47-.15-4.9.16-7.35-.89-7-3-9.13-6.8-5.77-13.41,1.31-2.58,4.9-4.11,7.3-6.34,1.12-1,3.11,1.93,3,3.63-.44,4.76,2.57,3.3,4.06,2,6.09-5.25,11.11-1.16,16.33,1.41,1.38.68,2.67,1.57,4.14.47,2-1.47,3.86-2.68,6.11-.42a1.22,1.22,0,0,0,1.78-.22c.81-.87.2-1.52-.42-2.09A9.28,9.28,0,0,0,311,361c-1.06-.61-2-1.29-1.82-2.69a1.93,1.93,0,0,1,1.69-1.6c1.7-.43,2.38,1,3,2.07,1.08,2,1.53,4,4.52,1.52,4.76-4,4.88-3.94-.29-7.88-7.38-5.64-15.87-8.54-24.81-10.43-.49-.1-1.18,0-1.44-.26-5.47-6-15.05-5-20-11.84A37.81,37.81,0,0,1,285,326.1c-1.67,4.48,5,4.07,4.88,8.25,0,1,3.9-.73,6-1.27,8,5.64,17.07,9,26.34,11.77,2.71.82,5.82.51,7.83,3.08-1.81,2.86-.74,4.72,2.2,5.6a30.23,30.23,0,0,0,9.66,1.53c3.58-.11,3.31-1.76,2.12-4.1a54.18,54.18,0,0,1,21.05,3c-3.18-.29-4.44,4.05-7.89,3.28-.54-.12-1,.78-.68,1.54.5,1.24.95,2.77,2.4,3,5.39.75,5.56,2.85,3.87,7.86a50.09,50.09,0,0,1-3.88,9.12c-1.71,3-2.84,6.69-.41,10.35,1.77,2.67,1.38,4.71-2.49,4.95-6,.37-11.15-1.09-16.76-4a34.77,34.77,0,0,0-15.59-4c-4.45,0-8.05-1.37-10.73-5.1-1.49-2.08-10.76-.49-11.36,1.92-.38,1.54.83,2,2.19,1.75l7-1c-.63,3-1.16,5.53-1.73,8.08-.14.63-.39,1.75-.63,1.76-5.5.3-4.08,4.84-5,7.95s-.35,5.23,3,6.06c-.53,1.73-2.12,1.78-3.14,2.52-1.47,1.07-1.52,2.72-.19,3.23,3.84,1.49,5.88,6,10.61,6,1.58,0,3.18.88,4.72,1.49,6.11,2.44,11.84,5.86,18.6,6.53,1.46.14,3.6.76,3.62,2.83s-2,1.78-3.4,2.13c-1,.26-1.92.88-1.77,2.05s1.17,1.38,2.1,1.83c1.88.9,3.14-.16,4.53-1a2.54,2.54,0,0,1,0,2.93l-4,0c-6.71-.86-12.43,1.84-18,5h0c-2,1.59-4-.32-6,0,.14-2.13,0-4.24.64-6.39,2.27-7.1,2.17-7.1-5.59-7.59-1.3-.08-2.57-.56-3.87-.75-2.62-.39-5-.53-3.45,3.42a2.93,2.93,0,0,1-1.15,3.93c-1.44.83-2.39-.38-3.58-.91-2.24-1-3.47-3.73-6.31-3.65-1.8.05-3.66-.49-3.91-2.31s1.95-1.87,3.17-2.55c.68-.38,1.67-.35,1.51-1.56-3.42-3.23-6.34-1-9.33.84-1.81,1.1-4.49,1.9-3.8,4.51a5.24,5.24,0,0,0,5.91,3.55c6.43-1.64,9.41,2.55,12.7,6.45,1.06,1.25,1.64,2.6,3.84,2.43s4.37,1.25,6.25,2.64l-12,4a1.91,1.91,0,0,0-2.06,2c-3.4-.55-6.69.15-9.95,1-.3-.75-.39-1.82-.95-2.19-4.41-2.9-8.9-5.69-13.41-8.46-.68-.41-1.83-1-2.27-.71-4.35,2.69-7.06-.25-10-2.65a3,3,0,0,0-2.23-.75c-7.86,2.39-12.5-2.57-17.92-6.89-2.64-2.1-6.27-3.55-9.5-5.16-1.18-.59-3.45,1.05-4.24-1.1s2.79-1.33,2.68-3.69c-6-1.74-12.75,0-18.48-3.27-.36-.21-1.25.3-1.79.64a38.35,38.35,0,0,1-10.15,5,4.58,4.58,0,0,0-3.71,4.2A206.08,206.08,0,0,0,176.87,408.21ZM347.43,386c2.45.26,4.52-.36,5.09-2.53a3.36,3.36,0,0,0-2.6-4.2c-7-1.14-12.73-7.46-20.61-5.29-.7.19-1.6-.29-2.4-.47-1.58-.36-3.69-1.31-4.44.53-1,2.41,1.35,3.56,3.15,4.23a102.23,102.23,0,0,0,14,4.6C342.61,383.45,344.16,387.22,347.43,386Z" transform="translate(-25.77 -260.17)"/><path class="cls-5" d="M365.06,354A54.18,54.18,0,0,0,344,351c-4.59-1.34-9.14-2.88-14-3-2-2.57-5.12-2.26-7.83-3.08-9.27-2.81-18.33-6.13-26.34-11.77-2.45-2.49-6.58-3.53-6.88-7.9q32-8.52,63.94-17.05,27.21-7.22,54.43-14.37c5.13-1.35,10.28-2.6,15.43-3.89,3.4.59,6.78-.89,10.23.07s5.31-.71,6-4c1.48-1.15,3.24-.93,4.94-1l5,9.18c0,5,3.13,10,.44,15.21-.54,1.06,2.17,3.1.44,3.94-5.27,2.56-2.13,5.63-.88,8.57a9,9,0,0,1,.46,4.72c-.46,4.89-5.87,6.81-6.39,11.49,0,.31-.07.62-.11.92-1.48.08-2.41,1.1-3.33,2-7.46,7.62-17.56,9.75-27.22,11.79-14.4,3-29.08,5.26-43.81,1.35A16.78,16.78,0,0,0,365.06,354Z" transform="translate(-25.77 -260.17)"/><path class="cls-6" d="M292.94,451a1.91,1.91,0,0,1,2.06-2c2.93-.75,4.57,3.34,8.52,1.31,4.81-2.48,9.39-6.71,15.63-5.69.19,0,.56-1.06.84-1.63h0c1.54.49,3.11,2.52,4.49,1.5,4.13-3.07,9.7-3,13.53-6.52l4,0c2.57-.22,5.8.45,7.55-.87,4-3,8.65-2.79,13-4.15,5.13-1.61,10.68-2.54,14.55-6.89h0a21.34,21.34,0,0,0,6.67.42c5.69-.68,10.35-4.7,16.23-4.46a15.07,15.07,0,0,0,11.1-4h0c2.69.61,4.36-1.89,7-2.18,5.49-.61,11.13-1.36,16.27-3.26,8.17-3,16.63-4.74,24.93-7.16,2-.6,4.06-.79,6.09-1.78,9-4.41,19.58-3.75,28.52-8.56.52-.28,1.34,0,2-.13,6.95-1.76,14.24-2.53,20.32-6.86,13.2-1.29,24.48-7.83,35.48-14.25,8.41-4.92,16.08-11.24,24.41-16.47a7.62,7.62,0,0,1,4.1-1.42c-1.59,7.89-6.19,13.86-12.06,19-7.48,2.08-12.46,8.26-19.13,11.69-4.58,2.36-8.78,5.71-13.59,7.28-3.28,1.07-4,2.17-3.28,5l-16,5c-11.62,1.83-22.6,6.21-34.08,8.63-3.09.65-6.69.73-9.14,3.42-2.53-.48-5,.14-7.37.78-19.1,5.07-38.16,10.26-57.28,15.24-18.15,4.73-36.42,9-54.51,13.95-16.64,4.54-33.41,8.59-50.08,13.07-21.31,5.73-42.73,11.08-64.08,16.7-13.94,3.67-28.09,6.52-41.77,11.19A337,337,0,0,0,155.21,498l-6.25-.15c-.33-1.68-3.9.16-2.9-2.08,1.35-3-.78-3.1-2.32-3.64a26.32,26.32,0,0,0-14.79-.51,3.88,3.88,0,0,1-4-1.11c-1-.91-1.93-2-3.36-1-.78,1.73,2.49,1.13,1.56,3-.76,1.54-2.06,1.43-3.39,1.46-.67,0-1.33.08-2,.12-14.27-2.22-25.56-10-36.4-18.93-11.8-9.78-22.49-20.66-33-31.7A140.44,140.44,0,0,1,29.1,418.29c-1.46-2.47-1.7-5.34-2.24-8.09,3.43-1.47,2.52,3.67,5.33,3.38.34-1.63-1-2.53-1.63-3.75-.7-1.38.32-1.63,1.36-1.78,1,1.52,1.83,3.11,2.9,4.54C38.74,417.81,42,423.68,47.94,427l.06,1c-.75,1.36-2.32,2.66-.78,4.33,2.51,2.73,5.09,5.4,7.76,8,1.34,1.3,2.75.28,4.06-.36L66,446c5.31,4,10,8.83,16,12.06a31.27,31.27,0,0,1,8.33,6.69c4.87,5.43,11.64,8.06,18,10.87,3.54,1.57,7.43,3.6,11.7,3.39,9.25,1.89,18.69,2,28,3h0c.56.57,1.13,1.66,1.67,1.65,6.45-.19,12.84,2.23,19.31.38,9.11.62,18,0,26-5a14.88,14.88,0,0,0,11,.58c3.19-1,7.39-2,8-6.59,5.45.3,10.83.51,15.29-3.6,1.23-1.13,2.86-1,4.64-.69,2.69.48,5.87,1.34,8.15-.58,4.32-3.64,9.46-4,14.61-4.48,1.8-.16,2.1-1.23,2.3-2.6l1-.06c7.52-.7,14.44-3.91,21.85-5.28C285.53,455,291.56,457.73,292.94,451Z" transform="translate(-25.77 -260.17)"/><path class="cls-7" d="M466,278.92c7.83-3.63,14.15-10.14,22.91-12,2.82.13,4.59,4,7.54,2.69,6-2.67,11.75-.28,17.59.37,3,4.53,7.63,7.3,11.43,11,1,1,2.74,1.8,2.08,3.61-.55,1.49-2.1,1.37-3.44,1.46-.63,0-1.35.06-1.58,1.74,6.4-.64,11,6.44,18,3.61a1.5,1.5,0,0,1,2,1.07c.36,1-.44,1.49-1.19,1.84a25.35,25.35,0,0,1-3.64,1.58c-1.25.35-3,.15-3.16,1.8s1.76,1.66,2.72,2.44c1.21,1,3.27,1.68,2.14,3.82-1.44,2.71-2.43.42-3.65-.41a3.58,3.58,0,0,0-3.79-.17c-1,.56-.41,1.4.07,2.07.8,1.1,2.77,2.35.14,3.31-2.07.74-3.15-1-3.43-2.69-.55-3.2-1.19-6.6,3-8.8-6.54,2.12-12.12-.66-17.86-2.46-.33,3.19,1.72,4.61,3.12,5.95,4.51,4.3,3.27,13.44,12.07,14.2,1.15.1,1.18,2.26.55,3.54-.75,1.52-2,.89-3,.32-2.17-1.24-4.78-.67-7-2.22-2-1.38-6.77,2.07-5.7,3.82,2.67,4.38-.67,6.2-2.93,8.61-10.31-10.75-19.08-22.86-29.71-33.34C475.9,290.36,471.05,284.52,466,278.92Z" transform="translate(-25.77 -260.17)"/><path class="cls-8" d="M442.91,339c0-.3.08-.61.11-.92,4-2.31,5.74-6.35,7.94-10,1.77-3.29,3.75-6.3,8.25-5.37,1.31.27,2.77.88,3.49-.7a3.88,3.88,0,0,0-.6-4.23c-2.72-3.2-6.91-5.17-8.06-9.68-1.36-4.76-2-9.78-5.09-13.9l-5-9.18c1.35-1.53,3.15-1.88,5.07-2,0,1.25.9,2,1.42,3,3.46,6.65,12.21,8.91,14,17a9.78,9.78,0,0,0,1.38,3.14A4.27,4.27,0,0,0,470,308c1.86-.17,1.7-1.59,2.11-2.83,1.36-4.19,3.91-6.83,8.75-6.12l2.1,3c-.66,3.43-3.76,7.51,1.05,9.85,4.18,2,3.61,3.07.22,5.1-2.45,1.47-4.83,3.86-3.9,6.76.84,2.58,3.95,3.18,6.7,3.29,7.48.3,14.61,2.52,21.87,4l17.11,20c-8.71.95-17.52-1.15-26-.32-7.44.73-14.59-2.53-21.83-.25-.66.21-1.52.42-1.79-.23-3.49-8.75-12.55-2.75-17.84-6.74-.68-.52-1.62.06-2.08.84-.56,1-.63,1.92.52,2.52.86.45,2.09.68,1.33,2s-2.25,1.31-3.51,1.52-1.6-.86-1.83-1.88-.88-2.05-.63-2.85c.82-2.62,1.72-4.94-1.85-6.34A10.49,10.49,0,0,0,442.91,339Zm32.87-25.49c1.52-1.45,3.88-2.39,3.78-4.77a2.86,2.86,0,0,0-3.17-2.51c-1.56.17-3.64.7-3.09,2.88C473.68,310.57,473.45,312.78,475.78,313.46Z" transform="translate(-25.77 -260.17)"/><path class="cls-9" d="M47.94,427c-6-3.35-9.2-9.22-13.12-14.44-1.07-1.43-1.94-3-2.9-4.54A6,6,0,0,1,30,403.72,5.92,5.92,0,0,0,26.17,398c3.69-13.84,17.26-24.54,32.89-25.84,2.63-.22,5.29-.09,7.94-.12a5.67,5.67,0,0,0,.68,1.32c2.75,3,2.74,9.81,9.78,6.93,1.06-.43,1.53,1,1.45,2.08-.09,1.26-.68,2.54-2,2.31-4.37-.75-3.27,2.71-3.55,4.69-.61,4.28-.33,8.58-1.73,12.87-2,6.09-3.89,12.41-4.3,18.73a15.7,15.7,0,0,1-4.65,10.42c-3.65,3.88-7.11,3.59-10.28-.8C51.18,428.92,50.33,427.06,47.94,427Z" transform="translate(-25.77 -260.17)"/><path class="cls-8" d="M47.94,427c2.39,0,3.24,1.89,4.41,3.52,3.17,4.39,6.63,4.68,10.28.8a15.7,15.7,0,0,0,4.65-10.42c.41-6.32,2.31-12.64,4.3-18.73,1.4-4.29,1.12-8.59,1.73-12.87.28-2-.82-5.44,3.55-4.69,1.37.23,2-1.05,2-2.31.08-1.06-.39-2.51-1.45-2.08-7,2.88-7-3.95-9.78-6.93A5.67,5.67,0,0,1,67,372a102.31,102.31,0,0,1,25,4.46c0,.18,0,.36,0,.54,1.84,6.54,7.4,10.9,10,17-.1,2.24-2.5,2.48-3.47,4-.51.78-1.86,2-.83,2.42,5.16,2.22,2.61,4,0,6a1.81,1.81,0,0,0-.23,2.31c1.29,2.64-.22,4.06-1.92,5.94-2.5,2.77-5.73,3.84-8.86,5.27A108.78,108.78,0,0,0,70,429.49c-2.48,1.72-3.29,7.73-1.58,9.07,1.11.87,3.81.33,2.72,3.06-.93,2.32-1.82,4.8-5.14,4.39Q62.52,443,59,440a3,3,0,0,0-1.63-2.9c-4.52-1.64-6.3-6-9.41-9.06Z" transform="translate(-25.77 -260.17)"/><path class="cls-10" d="M514,270c-5.84-.65-11.56-3-17.59-.37-3,1.31-4.72-2.56-7.54-2.69,18.76-6.73,37.69-9.82,57.11-2.71a3.82,3.82,0,0,1-1.31,2.6c-1.92,1.92-1.07,3,1.21,3.1,3.66.13,3.67,1.8,3.85,5.13.32,5.82-2.5,11.67.16,17.43a1.59,1.59,0,0,1-.07,1.44c-5.27,4.59-3.22,11.16-4.49,16.79-.77,3.38-.51,6.85-4.18,9-1.87,1.09-.32,2.55,1,2.73,4.66.63,4.37,3,2.58,6.22-1.15,2.05.37,3.06,1.79,4,4.68,3,4.56,5.83.65,10A62.26,62.26,0,0,1,532,354.07c-2.43-1.6-3.17-4.84-6-6.1,1.51-1.44,3-2.52,5.23-1.19,4.37,2.57,8.69,1,10.88-3.76a4.93,4.93,0,0,1,2.46-2.31c1.61-.83,3.47-1.45,3.35-3.82-.14-2.57-2.2-3.2-4.06-3.75-3.11-.92-3.49-2.89-2.2-5.35,1.38-2.64,1.17-4-2.18-3.91-1.29,0-2.56-.64-3.86-.84s-3.55.44-3.86-1.36,2-1.84,3.18-2.56c.52-.3,1.07-.54,1.91-1-1.49-1.77-5.18-.78-4.64-3.9s3.38-1.85,5.3-2.36c4.06-1.09,6.9-8.51,4.23-11.82-1.93-2.38-.87-2.86,1.19-3s3-.69,3.09-2.91-1-3.32-2.94-4a15,15,0,0,0-7.77-.82,3.57,3.57,0,0,1-3.85-1.74,2.09,2.09,0,0,1,0-1.83c1.3-1.32,2.74-.59,4.11.06a7.17,7.17,0,0,0,1.36.61c5.6,1.34,9.49-1.5,8.52-6.53-.57.5-1.05.9-1.49,1.32-.86.8-.77,3-2.68,2.17-1.75-.75-.72-2.23-.43-3.46.39-1.63-.73-2.7-1.36-4-2.56-5.41-7.42-6.26-12.51-6.87h-1c-1.08-1.41-2.3-1.06-3.36-.08C520,271.37,517.06,271.12,514,270Z" transform="translate(-25.77 -260.17)"/><path class="cls-11" d="M472.82,416.09c2.45-2.69,6.05-2.77,9.14-3.42,11.48-2.42,22.46-6.8,34.08-8.63,7.24,4.15,12.44,10,15.09,18-2.71,1.94-3.4-1.05-4.56-2.13-6.1-5.64-15-7.24-20.6-.92-2.4,1.57-5.92,1.87-7.1,4.81-2.84,7.07-8.15,13.85-3.45,22.15.76,1.34,1,2.84-.42,4.05-9.43-4.14-13.9-12.22-14.9-21.65C479.49,422.56,477.26,419,472.82,416.09Z" transform="translate(-25.77 -260.17)"/><path class="cls-1" d="M506,419c5.62-6.32,14.5-4.72,20.6.92,1.16,1.08,1.85,4.07,4.56,2.13,2.75,9.24,4.06,18.88-4.36,25.5s-18.66,7.75-29,3.67c1-.28,1.8-.48,1.35-2-2.09-7-1.07-13.65,1.29-20.52C501.69,424.94,505.13,422.77,506,419Zm-.05,13.94c-.22,4.78,3.8,10.05,7.68,10.07,3.59,0,7.17-3.37,7.26-6.87.12-4.27-5.32-10.91-9-11C508.56,425.05,506.14,428.23,505.92,432.93Z" transform="translate(-25.77 -260.17)"/><path class="cls-11" d="M155.21,498A337,337,0,0,1,197.73,487c3.62,2,7.57,3.65,9.54,7.72-1.37,1.74-3.58,1.92-4.77.75-3.43-3.39-7.53-2.37-11.5-2.49-3.69-1.31-4.86,3-7.87,3.48-2.75.41-4.12,2.38-5.64,4.85-2.38,3.89-2.85,8.53-6.2,12.14-3,3.25-.83,11.46,2.72,14.52,1,2.37,3.61,3.25,5,5.28-16.39-.92-28.71-16.22-24.12-32.85A18.2,18.2,0,0,0,155.21,498Z" transform="translate(-25.77 -260.17)"/><path class="cls-12" d="M480.9,299c-4.84-.71-7.39,1.93-8.75,6.12-.41,1.24-.25,2.66-2.11,2.83a4.27,4.27,0,0,1-4.28-1.88,9.78,9.78,0,0,1-1.38-3.14c-1.75-8.05-10.5-10.31-14-17-.52-1-1.44-1.79-1.42-3l16-3.84c.31,2.65,1.95,4.48,3.79,6.21A116.78,116.78,0,0,1,480.9,299Z" transform="translate(-25.77 -260.17)"/><path class="cls-13" d="M480.9,299a116.78,116.78,0,0,0-12.11-13.7c-1.84-1.73-3.48-3.56-3.79-6.21a1.41,1.41,0,0,1,1-.19c5.09,5.6,9.94,11.44,15.32,16.75,10.63,10.48,19.4,22.59,29.71,33.34l15,19c2.78,1.26,3.52,4.5,6,6.1l6.73,8.9c-5.31-2.9-8.47-8-12.65-12l-17.11-20c-1.33-1.67-2.54-3.45-4-5-7.46-7.87-13.72-16.85-21.94-24Z" transform="translate(-25.77 -260.17)"/><path class="cls-14" d="M532,399c-.69-2.87,0-4,3.28-5,4.81-1.57,9-4.92,13.59-7.28,6.67-3.43,11.65-9.61,19.13-11.69a74.64,74.64,0,0,1-21.76,17.59C541.74,395.08,537.74,399.15,532,399Z" transform="translate(-25.77 -260.17)"/><path class="cls-15" d="M117.77,494.1c.66,0,1.32-.11,2-.12,1.33,0,2.63.08,3.39-1.46.93-1.87-2.34-1.27-1.56-3,1.43-1,2.41,0,3.36,1a3.88,3.88,0,0,0,4,1.11,26.32,26.32,0,0,1,14.79.51c1.54.54,3.67.61,2.32,3.64-1,2.24,2.57.4,2.9,2.08C138.41,497.85,128.08,496,117.77,494.1Z" transform="translate(-25.77 -260.17)"/><path class="cls-16" d="M506,419c-.84,3.78-4.28,5.95-5.57,9.72-2.36,6.87-3.38,13.54-1.29,20.52.45,1.5-.35,1.7-1.35,2A3.77,3.77,0,0,1,495,450c1.45-1.21,1.18-2.71.42-4.05-4.7-8.3.61-15.08,3.45-22.15C500.05,420.86,503.57,420.56,506,419Z" transform="translate(-25.77 -260.17)"/><path class="cls-17" d="M26.17,398A5.92,5.92,0,0,1,30,403.72a6,6,0,0,0,1.93,4.33c-1,.15-2.06.4-1.36,1.78.62,1.22,2,2.12,1.63,3.75-2.81.29-1.9-4.85-5.33-3.38C25.24,406.19,25.8,402.07,26.17,398Z" transform="translate(-25.77 -260.17)"/><path class="cls-3" d="M289,325.18c.3,4.37,4.43,5.41,6.88,7.9-2.1.54-6,2.3-6,1.27.16-4.18-6.55-3.77-4.88-8.25Z" transform="translate(-25.77 -260.17)"/><path class="cls-18" d="M439,285.92c-.67,3.31-2.66,4.95-6,4s-6.83.52-10.23-.07C427.9,287.39,433.55,287.09,439,285.92Z" transform="translate(-25.77 -260.17)"/><path class="cls-19" d="M193.8,506.36c-1.21,2.8,1.37,3.82,2.55,4,3.52.45,4,2.42,3.31,5.12-.84,3.23-3.38,4.37-6.45,4-4.34-.49-9.06-6.23-8.92-10.53.09-2.51,6.07-6.62,8.38-5.75C194.4,503.86,194,505.23,193.8,506.36Z" transform="translate(-25.77 -260.17)"/><path class="cls-20" d="M174,528c-3.55-3.06-5.74-11.27-2.72-14.52,3.35-3.61,3.82-8.25,6.2-12.14,1.52-2.47,2.89-4.44,5.64-4.85,3-.44,4.18-4.79,7.87-3.48-5,4.48-11.25,7.73-13.88,14.41-1.6,4.07-3.5,8.16-2.25,12.76C175.61,522.89,174,525.35,174,528Z" transform="translate(-25.77 -260.17)"/><path class="cls-21" d="M516.06,388.09c-6.08,4.33-13.37,5.1-20.32,6.86-.62.16-1.44-.15-2,.13-8.94,4.81-19.52,4.15-28.52,8.56-2,1-4.07,1.18-6.09,1.78-8.3,2.42-16.76,4.14-24.93,7.16-5.14,1.9-10.78,2.65-16.27,3.26-2.59.29-4.26,2.79-7,2.18,2.14-5.07,7.4-3.55,11.12-4.8a292.86,292.86,0,0,1,34.06-9.57c10.46-2.16,20.57-5.55,30.91-8.06,7.86-1.91,16.25-2.67,23.62-6.61A8.37,8.37,0,0,1,516.06,388.09Z" transform="translate(-25.77 -260.17)"/><path class="cls-22" d="M377,426c-3.87,4.35-9.42,5.28-14.55,6.89-4.3,1.36-9,1.16-13,4.15-1.75,1.32-5,.65-7.55.87a2.54,2.54,0,0,0,0-2.93c8.36-2.09,16.87-3.59,25-6.43C370.29,427.46,373.4,425.72,377,426Z" transform="translate(-25.77 -260.17)"/><path class="cls-21" d="M411,418a15.07,15.07,0,0,1-11.1,4c-5.88-.24-10.54,3.78-16.23,4.46A21.34,21.34,0,0,1,377,426c7.62-3.2,15.66-5,23.62-7C404.07,418.13,407.26,415.34,411,418Z" transform="translate(-25.77 -260.17)"/><path class="cls-23" d="M214,473c-.65,4.61-4.85,5.61-8,6.59a14.88,14.88,0,0,1-11-.58c-.55-3.77-3.73-.43-5.13-1.89-1.42-1.76-3.69-2.37-4.94-4.62-7-12.66-13.54-25.63-21.92-37.51-.76-5.85-5.53-9.47-8.06-14.37-4.22-8.2-9.71-15.7-14.53-23.58-2.09-3.43-3.85-6.84-5.67-10.38-2.35-4.59-1-8.4,1.22-11.49,2-2.72,5.36-.24,8,.83.67.9,1.41,1.76,2,2.7,1.72,2.68,2.77,6.51,5.21,7.89,7.9,4.47,13.71,11.1,20,17.24,1.51,1.47,2.45,3.57,4.72,4.18a3.67,3.67,0,0,1,.87.2A207.62,207.62,0,0,1,191,426.94c1.11,4.46,4.31,7.61,7,11.1-.19,1.06-.46,2.09-1.87,1.35-2.26-1.18-4.47-2.45-7-3.84,0,1.32-.42,2.76.06,3.2,4.09,3.72,3,11.81,10.67,12.51,1.15.11,1.18,1.51,1.49,2.41,1.07,3.13,2.33,5.08,5.29,1.43,1.2-1.48,2.51-1.32,3.62.37.81,1.24,1.79,2.37,2.7,3.54l0,.05c-1.54,2.18-3.67-.23-5.86.82,3.8,3.79,7.23,7.66-.88,10.16-1.61.5-.81,1.95-.11,2.85,1.1,1.42,2.82,1.76,3.58.09,1.19-2.58,2.62-1.85,4.32-1Zm-26.69-21.7c-1.9.22-3.06,1.56-2,3a77.58,77.58,0,0,1,5.09,8.52,1.6,1.6,0,0,0,2.11.81c.82-.37,1.53-1.29,1.21-2-1.58-3.3-3.33-6.51-5.1-9.71C188.49,451.59,187.82,451.51,187.35,451.29Z" transform="translate(-25.77 -260.17)"/><path class="cls-24" d="M163,435c8.38,11.88,14.89,24.85,21.92,37.51,1.25,2.25,3.52,2.86,4.94,4.61A37.78,37.78,0,0,1,169,483c-7,0-14-1.55-21-1h0c-3.5-3.23-9.21-2.31-12.24-6.67-.6-.85-3.32-.91-4.15.28-3.06,4.36-7.59,2.94-11.65,3.44-4.27.21-8.16-1.82-11.7-3.39-6.35-2.81-13.12-5.44-18-10.87A31.27,31.27,0,0,0,82,458.07c1.57-7.39,6.63-10,13.58-6.89a2.59,2.59,0,0,1,1.31,1.3c3.17,8.27,10.47,11.46,17.7,15,3.74,1.85,4.4.69,4.46-2.61s1.44-4.72,4.72-3c2.54,1.3,5.84.85,7.34,4.64.84,2.12,8.23-.12,11-3.14,4.54-5,5.74-4.49,9.16,1.28,1.85,3.12,3.15,7.1,7.34,9.62-.79-3.87-2.73-6-4.24-8.36-3.53-5.49-3.08-6.66,3.2-8,1.77-.39,3.78-.86,4.24-3s-1.4-3.32-2.84-4.3c-5.88-4-5.91-3.91-11.08,1.75-.38.42-1.22.42-1.84.61l-2-3c.71-5.12,3.07-7.4,8.79-7.27C157.44,442.86,159.82,437.91,163,435Z" transform="translate(-25.77 -260.17)"/><path class="cls-13" d="M144,450l2,3,2.28,4.54c-5.46-3.35-7.73-9.1-11.25-13.79-9-12-17.39-24.48-26-36.76a1.8,1.8,0,0,1,2-2,53.1,53.1,0,0,0,3.08,4.44c2.19,2.54,4.56,4.24,7.09.28.66-1,1.52-2,2.8-1s1.48,2.66.22,3.42c-6.53,4-3.31,7.68-.21,11.94C132.16,432.57,138,441.35,144,450Z" transform="translate(-25.77 -260.17)"/><path class="cls-25" d="M176,408c-2.27-.61-3.21-2.71-4.72-4.18-6.33-6.14-12.14-12.77-20-17.24-2.44-1.38-3.49-5.21-5.21-7.89-.61-.94-1.35-1.8-2-2.7,4.85.17,7.3,4.34,10.36,6.94a123.29,123.29,0,0,1,20.48,22.42A13.1,13.1,0,0,1,176,408Z" transform="translate(-25.77 -260.17)"/><path class="cls-26" d="M113,405a1.8,1.8,0,0,0-2,2c-2.94-4.37-5.36-9.09-9-13-2.56-6.12-8.12-10.48-10-17,2.37.11,3.19,2,4.32,3.64C101.82,388.81,107.42,396.89,113,405Z" transform="translate(-25.77 -260.17)"/><path class="cls-27" d="M182.74,362.42c-.62,4.9-5.06,5.81-7.7,8.65,3.06-4.19-1.81-6.32-2.09-9.49-.09-1-1.41-2.05-.34-3.09a3.58,3.58,0,0,1,2.61-1.1c1.55.28,1.52,1.64,1.61,3.11C177,363.84,179.21,364.57,182.74,362.42Z" transform="translate(-25.77 -260.17)"/><path class="cls-28" d="M157.42,369c-2.22,0-3.41-1.05-3.42-3.32,0-2.48,1.08-4.35,3.62-4.42,1.9-.06,3.56,1,3.38,3.39S160.36,369,157.42,369Z" transform="translate(-25.77 -260.17)"/><path class="cls-29" d="M213.33,349.52c-.77,2.53.83,6.42-3.67,6.41a2.39,2.39,0,0,1-2.59-2.45C206.92,348.93,211,350.59,213.33,349.52Z" transform="translate(-25.77 -260.17)"/><path class="cls-30" d="M198,438c-2.65-3.49-5.85-6.64-7-11.1a4.58,4.58,0,0,1,3.71-4.2,38.35,38.35,0,0,0,10.15-5c.54-.34,1.43-.85,1.79-.64,5.73,3.3,12.45,1.53,18.48,3.27.11,2.36-3.44,1.61-2.68,3.69s3.06.51,4.24,1.1c3.23,1.61,6.86,3.06,9.5,5.16,5.42,4.32,10.06,9.28,17.92,6.89a3,3,0,0,1,2.23.75c2.94,2.4,5.65,5.34,10,2.65.44-.28,1.59.3,2.27.71,4.51,2.77,9,5.56,13.41,8.46.56.37.65,1.44.95,2.19-6.73,2-13.44,4.07-20.22,5.85-1.93.5-3,1.11-2.79,3.15l-1,.06c-4-1.51-7.74-1.34-11.15,1.54a4.51,4.51,0,0,1-2.11,1.09A72.89,72.89,0,0,0,228,468c-2.33.93-6,2.22-8.95,0-1.11-3.6-2.28-7.17-6.07-8.95l0-.05a4.39,4.39,0,0,0-.75-3.3,87.36,87.36,0,0,1-10.65-15.34A3.77,3.77,0,0,0,198,438Z" transform="translate(-25.77 -260.17)"/><path class="cls-2" d="M307,445c-1.88-1.39-3.93-2.82-6.25-2.64s-2.78-1.18-3.84-2.43c-3.29-3.9-6.27-8.09-12.7-6.45a5.24,5.24,0,0,1-5.91-3.55c-.69-2.61,2-3.41,3.8-4.51,3-1.8,5.91-4.07,9.33-.84.16,1.21-.83,1.18-1.51,1.56-1.22.68-3.43.71-3.17,2.55s2.11,2.36,3.91,2.31c2.84-.08,4.07,2.65,6.31,3.65,1.19.53,2.14,1.74,3.58.91a2.93,2.93,0,0,0,1.15-3.93c-1.53-3.95.83-3.81,3.45-3.42,1.3.19,2.57.67,3.87.75,7.76.49,7.86.49,5.59,7.59-.68,2.15-.5,4.26-.64,6.39Z" transform="translate(-25.77 -260.17)"/><path class="cls-2" d="M347.43,386c-3.27,1.27-4.82-2.5-7.78-3.13a102.23,102.23,0,0,1-14-4.6c-1.8-.67-4.13-1.82-3.15-4.23.75-1.84,2.86-.89,4.44-.53.8.18,1.7.66,2.4.47,7.88-2.17,13.58,4.15,20.61,5.29a3.36,3.36,0,0,1,2.6,4.2C352,385.59,349.88,386.21,347.43,386Z" transform="translate(-25.77 -260.17)"/><path class="cls-31" d="M260,461c-.18-2,.86-2.65,2.79-3.15,6.78-1.78,13.49-3.88,20.22-5.85,3.26-.86,6.55-1.56,9.95-1-1.38,6.76-7.41,4-11.11,4.73C274.42,457.07,267.5,460.28,260,461Z" transform="translate(-25.77 -260.17)"/><path class="cls-2" d="M330,347.93c4.84.15,9.39,1.69,14,3,1.19,2.34,1.46,4-2.12,4.1a30.23,30.23,0,0,1-9.66-1.53C329.29,352.65,328.22,350.79,330,347.93Z" transform="translate(-25.77 -260.17)"/><path class="cls-22" d="M307,445l7-2.06c2-.28,4,1.63,6,0-.28.57-.65,1.66-.84,1.63-6.24-1-10.82,3.21-15.63,5.69-3.95,2-5.59-2.06-8.52-1.31Z" transform="translate(-25.77 -260.17)"/><path class="cls-22" d="M338,438c-3.83,3.54-9.4,3.45-13.53,6.52-1.38,1-3-1-4.49-1.5C325.58,439.81,331.3,437.11,338,438Z" transform="translate(-25.77 -260.17)"/><path class="cls-32" d="M449,294.1c3.1,4.12,3.73,9.14,5.09,13.9-.21,4.17.71,8.89-1,12.32A19.77,19.77,0,0,0,451,328c-2.2,3.7-4,7.74-7.94,10,.52-4.68,5.93-6.6,6.39-11.49a9,9,0,0,0-.46-4.72c-1.25-2.94-4.39-6,.88-8.57,1.73-.84-1-2.88-.44-3.94C452.08,304.08,449,299.15,449,294.1Z" transform="translate(-25.77 -260.17)"/><path class="cls-3" d="M102,394c3.66,3.88,6.08,8.6,9,13,8.64,12.28,17,24.76,26,36.76,3.52,4.69,5.79,10.44,11.25,13.79L146,453c.62-.19,1.46-.19,1.84-.61,5.17-5.66,5.2-5.74,11.08-1.75,1.44,1,3.31,2.13,2.84,4.3s-2.47,2.57-4.24,3c-6.28,1.37-6.73,2.54-3.2,8,1.51,2.35,3.45,4.49,4.24,8.36-4.19-2.52-5.49-6.5-7.34-9.62-3.42-5.77-4.62-6.24-9.16-1.28-2.77,3-10.16,5.26-11,3.14-1.5-3.79-4.8-3.34-7.34-4.64-3.28-1.69-4.66-.34-4.72,3s-.72,4.46-4.46,2.61c-7.23-3.59-14.53-6.78-17.7-15a2.59,2.59,0,0,0-1.31-1.3c-7-3.09-12-.5-13.58,6.89-5.92-3.23-10.66-8-16-12.06,3.32.41,4.21-2.07,5.14-4.39,1.09-2.73-1.61-2.19-2.72-3.06-1.71-1.34-.9-7.35,1.58-9.07A108.78,108.78,0,0,1,86.63,420c3.13-1.43,6.36-2.5,8.86-5.27,1.7-1.88,3.21-3.3,1.92-5.94a1.81,1.81,0,0,1,.23-2.31c2.65-2,5.2-3.82,0-6-1-.45.32-1.64.83-2.42C99.48,396.5,101.88,396.26,102,394Z" transform="translate(-25.77 -260.17)"/><path class="cls-33" d="M219,468c3,2.19,6.62.9,8.95,0a72.89,72.89,0,0,1,17.82-4.31,4.51,4.51,0,0,0,2.11-1.09c3.41-2.88,7.16-3.05,11.15-1.54-.2,1.37-.5,2.44-2.3,2.6-5.15.48-10.29.84-14.61,4.48-2.28,1.92-5.46,1.06-8.15.58-1.78-.31-3.41-.44-4.64.69-4.46,4.11-9.84,3.9-15.29,3.6l-.06-1c.3-1.82.82-3.32,3.2-2.46C218.62,470.06,218.84,469.05,219,468Z" transform="translate(-25.77 -260.17)"/><path class="cls-3" d="M120,479c4.06-.5,8.59.92,11.65-3.44.83-1.19,3.55-1.13,4.15-.28,3,4.36,8.74,3.44,12.24,6.67C138.66,481,129.22,480.91,120,479Z" transform="translate(-25.77 -260.17)"/><path class="cls-34" d="M169,483a37.78,37.78,0,0,0,20.87-5.92c1.4,1.47,4.58-1.87,5.13,1.9-8,5-16.9,5.63-26,5C169,483.68,169,483.35,169,483Z" transform="translate(-25.77 -260.17)"/><path class="cls-35" d="M48,428c3.11,3,4.89,7.42,9.41,9.06A3,3,0,0,1,59,440c-1.31.63-2.72,1.65-4.06.35-2.67-2.58-5.25-5.25-7.76-8C45.68,430.66,47.25,429.36,48,428Z" transform="translate(-25.77 -260.17)"/><path class="cls-3" d="M169,483c0,.33,0,.66,0,1-6.47,1.85-12.86-.57-19.31-.38-.54,0-1.11-1.08-1.67-1.65C155.07,481.47,162,483,169,483Z" transform="translate(-25.77 -260.17)"/><path class="cls-36" d="M526,348l-15-19c2.26-2.41,5.6-4.23,2.93-8.61-1.07-1.75,3.7-5.2,5.7-3.82,2.24,1.55,4.85,1,7,2.22,1,.57,2.22,1.2,3-.32.63-1.28.6-3.44-.55-3.54-8.8-.76-7.56-9.9-12.07-14.2-1.4-1.34-3.45-2.76-3.12-5.95,5.74,1.8,11.32,4.58,17.86,2.46-4.22,2.2-3.58,5.6-3,8.8.28,1.66,1.36,3.43,3.43,2.69,2.63-1,.66-2.21-.14-3.31-.48-.67-1.12-1.51-.07-2.07a3.58,3.58,0,0,1,3.79.17c1.22.83,2.21,3.12,3.65.41,1.13-2.14-.93-2.83-2.14-3.82-1-.78-2.92-.74-2.72-2.44s1.91-1.45,3.16-1.8a25.35,25.35,0,0,0,3.64-1.58c.75-.35,1.55-.82,1.19-1.84a1.5,1.5,0,0,0-2-1.07c-7,2.83-11.63-4.25-18-3.61.23-1.68,1-1.69,1.58-1.74,1.34-.09,2.89,0,3.44-1.46.66-1.81-1.08-2.64-2.08-3.61-3.8-3.67-8.45-6.44-11.43-11,3.06,1.12,6,1.37,8.64-1.08,1.06-1,2.28-1.33,3.36.08-2.09,4.13-.82,7.37,2.76,9.83a15.21,15.21,0,0,1,4,3.66c.61.86,1.29,1.78,2.36,1.16,1.38-.79.77-1.93.07-2.94L527,269c5.09.61,10,1.46,12.51,6.87.63,1.34,1.75,2.41,1.36,4-.29,1.23-1.32,2.71.43,3.46,1.91.83,1.82-1.37,2.68-2.17.44-.42.92-.82,1.49-1.32,1,5-2.92,7.87-8.52,6.53a7.17,7.17,0,0,1-1.36-.61c-1.37-.65-2.81-1.38-4.11-.06a2.09,2.09,0,0,0,0,1.83,3.57,3.57,0,0,0,3.85,1.74,15,15,0,0,1,7.77.82c1.93.7,3,1.78,2.94,4s-1.11,2.77-3.09,2.91-3.12.62-1.19,3c2.67,3.31-.17,10.73-4.23,11.82-1.92.51-4.77-.72-5.3,2.36s3.15,2.13,4.64,3.9c-.84.43-1.39.67-1.91,1-1.22.72-3.49.79-3.18,2.56s2.44,1.13,3.86,1.36,2.57.85,3.86.84c3.35,0,3.56,1.27,2.18,3.91-1.29,2.46-.91,4.43,2.2,5.35,1.86.55,3.92,1.18,4.06,3.75.12,2.37-1.74,3-3.35,3.82a4.93,4.93,0,0,0-2.46,2.31c-2.19,4.8-6.51,6.33-10.88,3.76C529,345.45,527.53,346.53,526,348Z" transform="translate(-25.77 -260.17)"/><path class="cls-12" d="M483,302c8.22,7.17,14.48,16.15,21.94,24,1.46,1.54,2.67,3.32,4,5-7.26-1.49-14.39-3.71-21.87-4-2.75-.11-5.86-.71-6.7-3.29-.93-2.9,1.45-5.29,3.9-6.76,3.39-2,4-3.05-.22-5.1C479.24,309.51,482.34,305.43,483,302Z" transform="translate(-25.77 -260.17)"/><path class="cls-12" d="M451,328a19.77,19.77,0,0,1,2.1-7.66c1.69-3.43.77-8.15,1-12.32,1.15,4.51,5.34,6.48,8.06,9.68a3.88,3.88,0,0,1,.6,4.23c-.72,1.58-2.18,1-3.49.7C454.71,321.68,452.73,324.69,451,328Z" transform="translate(-25.77 -260.17)"/><path class="cls-12" d="M475.78,313.46c-2.33-.68-2.1-2.89-2.48-4.4-.55-2.18,1.53-2.71,3.09-2.88a2.86,2.86,0,0,1,3.17,2.51C479.66,311.07,477.3,312,475.78,313.46Z" transform="translate(-25.77 -260.17)"/><path class="cls-7" d="M527,269l8.16,11.7c.7,1,1.31,2.15-.07,2.94-1.07.62-1.75-.3-2.36-1.16a15.21,15.21,0,0,0-4-3.66c-3.58-2.46-4.85-5.7-2.76-9.83Z" transform="translate(-25.77 -260.17)"/><path class="cls-37" d="M505.92,432.93c.22-4.7,2.64-7.88,5.93-7.8,3.69.09,9.13,6.73,9,11-.09,3.5-3.67,6.89-7.26,6.87C509.72,443,505.7,437.71,505.92,432.93Z" transform="translate(-25.77 -260.17)"/><path class="cls-38" d="M198,438a3.77,3.77,0,0,1,3.57,2.33,87.36,87.36,0,0,0,10.65,15.34A4.39,4.39,0,0,1,213,459c-.91-1.17-1.89-2.3-2.7-3.54-1.11-1.69-2.42-1.85-3.62-.37-3,3.65-4.22,1.7-5.29-1.43-.31-.9-.34-2.3-1.49-2.41-7.63-.7-6.58-8.79-10.67-12.51-.48-.44-.06-1.88-.06-3.2,2.52,1.39,4.73,2.66,7,3.84C197.52,440.13,197.79,439.1,198,438Z" transform="translate(-25.77 -260.17)"/><path class="cls-39" d="M219,468c-.16,1-.38,2.05-1.82,1.54-2.38-.86-2.9.64-3.2,2.46-1.7-.88-3.13-1.61-4.32,1-.76,1.67-2.48,1.33-3.58-.09-.7-.9-1.5-2.35.11-2.85,8.11-2.5,4.68-6.37.88-10.16,2.19-1.05,4.32,1.36,5.86-.82C216.72,460.84,217.89,464.41,219,468Z" transform="translate(-25.77 -260.17)"/><path class="cls-40" d="M187.35,451.29c.47.22,1.14.3,1.33.65,1.77,3.2,3.52,6.41,5.1,9.71.32.68-.39,1.6-1.21,2a1.6,1.6,0,0,1-2.11-.81,77.58,77.58,0,0,0-5.09-8.52C184.29,452.85,185.45,451.51,187.35,451.29Z" transform="translate(-25.77 -260.17)"/></svg>