<svg id="图层_1" data-name="图层 1" xmlns="http://www.w3.org/2000/svg" viewBox="0 0 383 626"><defs><style>.cls-1{fill:#fefefe;}.cls-2{fill:#969696;}.cls-3{fill:#e1e1e1;}.cls-4{fill:#fd94c9;}.cls-5{fill:#d9edfb;}.cls-6{fill:#fedaa0;}.cls-7{fill:#f64da1;}.cls-8{fill:#f44da1;}.cls-9{fill:#fbdcec;}.cls-10{fill:#f3e9ee;}.cls-11{fill:#fe53ad;}.cls-12{fill:#fe9683;}.cls-13{fill:#010101;}.cls-14{fill:#fef5f3;}.cls-15{fill:#fef6f5;}.cls-16{fill:#fef6f4;}.cls-17{fill:#fef7f6;}.cls-18{fill:#fefbfa;}.cls-19{fill:#feece9;}.cls-20{fill:#fef1f8;}.cls-21{fill:#feecf5;}.cls-22{fill:#fee8f3;}.cls-23{fill:#fef0f7;}.cls-24{fill:#feedf6;}.cls-25{fill:#feeaf4;}.cls-26{fill:#fee7f3;}.cls-27{fill:#feeef6;}.cls-28{fill:#feebf5;}.cls-29{fill:#fef2f8;}.cls-30{fill:#fef4f9;}.cls-31{fill:#feedf5;}.cls-32{fill:#feeff7;}.cls-33{fill:#fef3f9;}.cls-34{fill:#feeff6;}.cls-35{fill:#fef6fa;}.cls-36{fill:#fedced;}.cls-37{fill:#fee6f2;}.cls-38{fill:#fef7fb;}.cls-39{fill:#fef5fa;}.cls-40{fill:#fefafc;}.cls-41{fill:#fef7fa;}.cls-42{fill:#fefbfc;}.cls-43{fill:#fef1f7;}.cls-44{fill:#fefcfd;}.cls-45{fill:#fef9fb;}.cls-46{fill:#fee9f3;}.cls-47{fill:#feebf4;}.cls-48{fill:#fee4f1;}.cls-49{fill:#fedeee;}.cls-50{fill:#fef5f9;}.cls-51{fill:#fe8f7a;}.cls-52{fill:#e7e7e7;}.cls-53{fill:#f1f1f1;}.cls-54{fill:#f77149;}.cls-55{fill:#fee9e4;}.cls-56{fill:#feebe7;}.cls-57{fill:#feeeeb;}.cls-58{fill:#feeae7;}.cls-59{fill:#feeae6;}.cls-60{fill:#feefec;}.cls-61{fill:#fee6e2;}.cls-62{fill:#fedfda;}.cls-63{fill:#fee0da;}.cls-64{fill:#fee6e1;}.cls-65{fill:#fee3de;}.cls-66{fill:#fee5e1;}.cls-67{fill:#fedbd4;}.cls-68{fill:#fedfd9;}</style></defs><title>rabbit</title><path d="M-186,83c.13.5.37.93.95.94,9.28.17,14.26,6.13,18.13,13.52,4,7.64,5.8,16,6.57,24.39a162.11,162.11,0,0,1-.33,31.91,252.08,252.08,0,0,1-5,31.47c-4.84,20.61-11.79,40.47-22,59.12-.53,1-1.44,1.88-1.26,3.5a149.66,149.66,0,0,1,54.34,17.39c3.07-8.18,6-16.23,9.71-23.9,12.31-25.15,27.85-47.9,49.48-66.05,8.45-7.09,17.6-12.94,28.62-15.48,10.1-2.32,19.66,2.4,23.37,12A50.71,50.71,0,0,1-20.85,183c0,2.68,0,5.36,0,8-2,23.87-11.2,45.2-23,65.63a202.06,202.06,0,0,1-35,44.94,234.93,234.93,0,0,1,15.92,22.28c17.42,28.56,26.32,59.14,20.91,92.75-4.16,25.92-17.1,47.2-36.41,64.7a148.68,148.68,0,0,1-41.91,26.36c-1,.44-2.35.45-2.92,2,6.72,4.8,14.32,8.06,21.61,11.51,1.1,1.6,0,3.06.17,4.5.93,1.74,2.84,2.27,4.22,3.41,4.47,3.7,9,7.26,14.55,9.44,4,1.57,8.1,1.77,12.17,2.31a60.36,60.36,0,0,1,9.71,2.08c4.93,1.51,8.87,4.08,9.55,9.59.75,6,.11,11.91-5.34,15.68-9,6.22-19.12,8.06-29.9,6.31-8-1.29-15.46-3.85-21.9-9.43-4.53,4.1-9.53.12-14.38.91,6.65,14.42,18.92,23.57,29.53,34.13,6.48,6.45,14.44,11.16,21,17.57,7.29,7.14,9.9,15.69,7,25.45A17.55,17.55,0,0,1-87.1,654.67c-2.54-.72-5-1.6-8-2.57-12.18,16.36-27.24,23.21-46.47,11.93-3.09,1.6-2.31,4-2.27,6.29.28,16.11-6.26,28.2-20.92,35.52-2.57,1.28-5.37,1.71-8.13,2.3l-9.15,0c-11.05-1.78-22-9.06-26.17-27.13-10.2.25-20.28-.53-27.56-9.59a39.47,39.47,0,0,1-14.94,7.77c-9.5,18.47-22.37,25.34-40.68,21.84-14.33-2.75-23.35-13.06-24.83-28.82-9.69-2.47-17.56-7.4-19.83-18.33-1.64.88-3,1.54-4.26,2.28-9.19,5.25-18.11,4.16-26-2.26s-9.88-15-7.81-24.74c1.87-8.85,8-14.66,13.93-20.75,10-10.3,21.63-18.67,32.06-28.75a78.76,78.76,0,0,1-.88-25.47c-5.55.35-11.42,3.16-14.74-3.43-17.65,8.87-33.9,5.48-49.21-5.22a18.61,18.61,0,0,1-7.86-14.42c-.46-6,2.09-9.51,8-10.77a43.94,43.94,0,0,1,9.92-1.06,23.6,23.6,0,0,0,15.4-4.69c4.79-3.64,10.93-5,15.91-7.92,7.28-4.32,15.4-5.79,23.22-9.53-4.54-2.76-9-5.42-13.44-8.21C-359,478.05-374.28,465.17-386,448.45c-7.55-10.76-12.57-22.62-13.89-35.81-1.35-13.44-2-26.88-.2-40.36,3.65-26.8,13.36-51,30.67-71.87,23.78-28.64,54.47-44.88,91.36-49.53,8.22-1,16.44-2.14,24.67-3.21,1.09-1.83.36-3.66.19-5.4-2.05-20.8.56-41.19,5.06-61.44a230.24,230.24,0,0,1,17.33-50.75c7.05-14.53,15-28.49,27.85-39a33.93,33.93,0,0,1,12.64-6.78c.87-.24,2.12.08,2.31-1.35Zm-15,506.83a6.11,6.11,0,0,0,4.83-1.05l1.13-4.32c-35.4-.18-70.42-2.42-105-7.86-.92,2.23-1.12,3.63-.51,5.35,14.38,2.17,28.91,3.45,43.4,5,7.92.83,15.88,1.33,23.82,1.88,7.79.53,15.57,1.35,23.39,1.1A33.45,33.45,0,0,0-201,589.83Zm-35.87,74.95c1.16-.72,2.32-1.38,3.87-.07.68,2.82,1.83,5.48,4.78,7.38,7.67,4.92,15.94,5.13,24.33,3.34,5.68-1.21,10.86-3.66,14.25-9a6,6,0,0,1,5.43-3.22c4.95,7,11.82,11.75,21.16,9.43,8.26-2.05,15.44-6.19,18.68-14.2,2.16-.79,3,.39,4.16,1,5.25,2.79,10.51,5.88,16.72,5.51,9.24-.54,16.45-5,21.91-12.32a15.82,15.82,0,0,1,6.47-5.43c2.29.8,4.61,1.7,7,2.42,8.72,2.67,15.68-.31,18.58-7.59.82-2.06-.4-3.86,0-5.6,1.34-6.45-1.32-11.38-5.82-15.35-7-6.15-14.37-11.8-21.33-17.95-5.9-5.21-11.44-10.83-17.14-16.28a4.16,4.16,0,0,0-1.77-2l-6.47-7.41c-10.55,3.93-21.34,6.5-32.05,9.35-1.12.3-2.67.24-3.29,1-2.74,3.24-6.5,2.78-10.07,3.33-6.94,1.08-14,.76-20.92,1.19a19.79,19.79,0,0,0-4.95.59,43.06,43.06,0,0,1-16.72,1.85c-13-.92-25.92-1.47-38.87-2.55-17.9-1.49-35.71-3.58-53-5.57-8.9,4.45-16.35,1.1-23.88-2.82-6.11,6.29-13.31,11.41-19.79,17.36-7.34,6.74-15,13.15-20.76,21.42-4.62,6.66-4.89,17.56-.72,23.69a18.69,18.69,0,0,0,26,5.16c2.44-1.63,4.85-3.71,8.35-1.77.8,2,1.78,4.14,2.45,6.35a12.26,12.26,0,0,0,4.69,6.89c8.49,5.72,23,9.41,33.3.11,2.57-2.32,5.08-5.35,9.52-5.65,1.39,2.16,2.91,4.3,4.22,6.57,7.41,12.79,27.29,16.6,39.7,3.16C-237.78,666.73-237.35,665.75-236.91,664.78ZM-85.06,301.69c2.26-3.37,5.44-5.58,8.06-8.34a205.18,205.18,0,0,0,46.62-77.46c3.84-11.56,6-23.54,4.46-35.9-1.43-11.52-8.93-17.59-19.8-15.7a32.7,32.7,0,0,0-4.82,1.3c-9.8,3.3-17.94,9.33-25.41,16.22-26.07,24.08-43.76,53.48-54.88,87.25a6.07,6.07,0,0,1-3.67,2.07c-8.3-5.58-17.55-9.16-26.95-12.45-8.67-3-17.73-4.37-26.58-6.6-2.55-.65-5.21-1.07-6.68-3.15-.45-1.52.33-2.33.8-3.14,12.75-21.92,20.61-45.61,25.53-70.35a187.1,187.1,0,0,0,3.29-52.64c-.71-8.16-2.31-16.12-6-23.53-5.52-11.22-14.32-13.8-25-7.39-6.85,4.09-12,10-16.58,16.36-13.21,18.46-21.55,39.17-27.7,60.85a257,257,0,0,0-6.9,33.15A168.8,168.8,0,0,0-248.38,243c.33,3.35,1.26,6.94-.91,10.12-4.1-1-4.73-1.08-9.33-.12a69.16,69.16,0,0,1-9.4,1.27c-23.28,1.59-45,8.13-65,20.37a128.18,128.18,0,0,0-47.87,51.47,141.88,141.88,0,0,0-15.45,76.6c1.29,17.65,6.3,33.55,17.28,47.44,13.81,17.47,31.23,30.56,50.55,41.31A225.92,225.92,0,0,0-285.07,510a238.58,238.58,0,0,0,51.23,10c13.68,1.11,27.23.14,40.88-.83A254.34,254.34,0,0,0-147.25,512c22.65-5.86,43.54-15.4,61.49-30.49C-52.83,453.84-39.36,418.59-47,376.1-52.13,347.79-66,323.59-85.06,301.69Zm-97.71,242.62c-26.31,13.52-46.18,3.18-63.76-15.7C-261,541-277.12,545.12-295.3,538.84c-2.76,9.09-5.05,27.74-4.11,33,35,5.83,70.3,7.9,105.74,8C-190.6,567.38-186.09,556.16-182.77,544.31Zm41.5-28.93c-4.29,18.34-8.5,36.31-12.85,54.89,9-2.32,17.26-3.65,25.37-6.78-3.08-3.87-9.24-3.44-11.15-8.41,1.59-1.86,3.19-1.28,4.71-.59,2.57,1.16,5,2.58,7.65,3.62,5.12,2,10.11,5,16.22,3.58,1.7-12.71,3.37-25.19,5.06-37.85-8-3.48-16-7.21-22.73-12.64Zm-27.87,6.16c-9.3,21.63-15.47,43.8-22.05,66.31,10-.22,19.26-.68,28.78-2.48,5.29-22.62,10.58-45.27,16-68.43ZM-351,511.85c-4.25.95-7.71,2.19-10.63,4.44-7.4,5.71-15.58,8.55-25,7.89-3.08-.22-6.34.12-9,2.58-1.8,6.66,1,11.63,6.07,15.54,9.45,7.25,20.46,9.46,32,8.52,4.57-.37,9.54-1.69,12.06-6.65A189.07,189.07,0,0,1-351,511.85Zm244.5,48.93c11.58,9.15,24.32,11.39,38.21,8a21.91,21.91,0,0,0,8.58-3.85c3.6-2.85,4.62-6.78,4.16-11.13-.43-4.15-3.58-5.8-7.08-6.69a63.7,63.7,0,0,0-11.73-2.2,33,33,0,0,1-18-6.43c-3.26-2.42-6.58-4.76-10.25-7.4C-104,541.39-105.29,551.08-106.54,560.78Zm-79,108.55c-2.71,2.81-5,5.5-8.17,7.09s-6.31,2.79-9.45,4.15c1.38,13.68,14.49,25.17,29,23.16,15-2.08,26.85-16.8,25.37-32.37C-161.44,679-173.82,681.1-185.54,669.33Zm-114.3-132.55a38.38,38.38,0,0,1-14.94-15.38,93.73,93.73,0,0,0-5.85,15.4c-3.61,12.57-5.95,25.25-3.54,38.4.59,3.26,2.08,5.71,5.05,6.85a28.21,28.21,0,0,0,12.77,1.88C-303.55,568.24-304.08,552.28-299.84,536.78Zm-12.88-32.13a25.07,25.07,0,0,0,6.25,20.73c10.27,11.75,28.84,15.13,44,8.1,5.17-2.4,10.26-5,13.9-10.43A252,252,0,0,1-312.72,504.65ZM-311,672.86c-.2,12.51,9.89,22.55,23.13,24.15,15.87,1.92,30.21-8.47,30.71-16.78-12.39-.53-21.88-5.85-27.62-17.59C-292.47,669.88-300.55,674.73-311,672.86Zm68.27-148.63c7.14,10.66,16.79,17.63,28.94,20.57,9.67,2.33,19.21,1.49,27.62-4.58a26.56,26.56,0,0,0,11.25-17.89C-197.86,524.34-220.16,527-242.74,524.23Zm-103.86-15.3c1.34,14.19,2.89,28.07,7.94,41.1a15.54,15.54,0,0,0,10.28-1.62,203,203,0,0,1,11.43-35c-1.45-3.47-.14-7.28-.31-10.93l-5.16-2.31C-330.4,503.12-338.55,505.35-346.6,508.93ZM-127,568.14c-9.5,2.73-18.78,5.07-28,6.93-1.22,2.25-1.19,4.41-1.85,7.33a234.92,234.92,0,0,0,31.79-8.82C-124.66,571-125.82,569.76-127,568.14Z" transform="translate(403 -83)"/><path class="cls-2" d="M-182.07,708.11l9.15,0a2.27,2.27,0,0,0-.08.86h-9A1.8,1.8,0,0,0-182.07,708.11Z" transform="translate(403 -83)"/><path class="cls-3" d="M-20.83,191c0-2.68,0-5.36,0-8a2.43,2.43,0,0,1,.85,0v8l-.41.05Z" transform="translate(403 -83)"/><path class="cls-1" d="M-85.06,301.69c19.08,21.9,32.93,46.1,38,74.41,7.66,42.49-5.81,77.74-38.74,105.41-17.95,15.09-38.84,24.63-61.49,30.49A254.34,254.34,0,0,1-193,519.22c-13.65,1-27.2,1.94-40.88.83a238.58,238.58,0,0,1-51.23-10,225.92,225.92,0,0,1-43.39-18.55c-19.32-10.75-36.74-23.84-50.55-41.31-11-13.89-16-29.79-17.28-47.44a141.88,141.88,0,0,1,15.45-76.6A128.18,128.18,0,0,1-333,274.67c19.93-12.24,41.67-18.78,65-20.37a69.16,69.16,0,0,0,9.4-1.27c4.6-1,5.23-.87,9.33.12,2.17-3.18,1.24-6.77.91-10.12a168.8,168.8,0,0,1,1.11-40.79,257,257,0,0,1,6.9-33.15c6.15-21.68,14.49-42.39,27.7-60.85,4.56-6.38,9.73-12.27,16.58-16.36,10.72-6.41,19.52-3.83,25,7.39,3.65,7.41,5.25,15.37,6,23.53a187.1,187.1,0,0,1-3.29,52.64c-4.92,24.74-12.78,48.43-25.53,70.35-.47.81-1.25,1.62-.8,3.14,1.47,2.08,4.13,2.5,6.68,3.15,8.85,2.23,17.91,3.56,26.58,6.6,9.4,3.29,18.65,6.87,26.95,12.45a6.07,6.07,0,0,0,3.67-2.07c11.12-33.77,28.81-63.17,54.88-87.25,7.47-6.89,15.61-12.92,25.41-16.22a32.7,32.7,0,0,1,4.82-1.3c10.87-1.89,18.37,4.18,19.8,15.7,1.53,12.36-.62,24.34-4.46,35.9A205.18,205.18,0,0,1-77,293.35C-79.62,296.11-82.8,298.32-85.06,301.69ZM-184,146a5.48,5.48,0,0,0-1.46-4c-2.87-3.69-7-5-11.17-5.85s-9.43,2.5-11.37,6.89c-3.45,3.07-4,7.72-6.14,11.51-1.85,3.24-5.16,5.56-5.86,9.49-1.64,1.16-1.84,3.05-2.37,4.76a138.33,138.33,0,0,0-4.31,15.62c-1.76,9.39-5.22,18.33-7.32,27.62-1.56,4.17-3.28,8.28-4,12.72-1.35,8.2,2.6,14.73,7.77,20.05,3.48,3.57,9.21,5.37,14.2,3.51a25,25,0,0,0,15.1-15.38c2.48-6.93,4.66-14,6.72-21.05,2.31-7.9,4.68-15.76,6.21-23.85,1.41-1.15,1.61-2.91,1.88-4.46,1.15-6.49,2.51-13,3-19.54C-182.73,158-181.41,151.88-184,146Zm79,103c-4.64,3.77-7.12,9-8.85,14.44-2,6.21-1.28,12.72-1.14,19.14.18,7.88,10.7,16.76,19.87,11.95,5.33-2.8,9.32-7.11,13.06-11.57,5.51-6.57,9.54-14.14,13.07-21.95a5,5,0,0,0,2.78-2.74c2.61-7.07,6.83-13.55,7.76-21.27.41-3.43,1.69-6.76,2.19-10.12,1.09-7.19.63-14.29-5.18-19.89-1.41-1.36-3-2.42-4.77-2.36-4.68.16-9.07,1-12.68,4.65-3,2.95-5.19,6.48-8.21,9.33C-94.88,225.92-99,235.43-103,245ZM-348,426.14c21.49,1.25,42.56-18.22,42.17-42.41A42.15,42.15,0,0,0-347.92,342c-23.38.06-41.86,18.7-42.22,42.14C-390.48,406.73-370.72,427.11-348,426.14Zm203.75,44c21.32,1,42.89-15.14,42.72-42.82-.13-21.8-16.47-43.28-47.21-40.89-19.45,1.52-36.52,17.3-37.14,41.27C-186.5,450.87-166.92,470.77-144.27,470.1ZM-296.1,341.33a27.52,27.52,0,0,0,2.37,12.61c4,8.4,12.57,9.1,17.5,1.16,5.77-9.28,6.91-19.25,2.38-29.46-3.67-8.28-12-9.12-17.18-1.75C-294.7,329.09-296.09,335-296.1,341.33ZM-179.46,335c-3.57.82-6.65,2.29-8.69,5.41-5.68,8.68-6.81,17.95-2.72,27.48,3.68,8.6,12.51,9.64,18.2,2.24,5-6.55,6.45-14.11,4.89-22.18C-169,341.51-171.78,336.31-179.46,335Zm-81.74,84.56c-.07.78-.09,1.44-.18,2.1-1,7.47-.18,14.62,4.26,20.92,4.67,6.61,11.75,7.08,17.37,1.32a25.13,25.13,0,0,0,4.49-7.1c3-6.36,1.54-13.4,3.25-19.94.21-.78-.65-1.45-1.11-1.59-2.67-.37-2.9,2.47-5,2.8-3,.29-4.49-1.88-6.07-3.87,0-1.38,0-2.54,0-3.7s-.31-2.33.43-3.38c6.1-4.5,7.11-6.58,5.19-11.5a18.7,18.7,0,0,0-15.17.63c-2.13,5.84,3.35,7.3,5.34,10.83-.85,2.43-.31,5.13-.8,7.79-5.45,4.61-9.28-.42-13.43-2.69C-265.78,415.54-262.2,417.05-261.2,419.54Z" transform="translate(403 -83)"/><path class="cls-4" d="M-113.92,586.81c5.7,5.45,11.24,11.07,17.14,16.28,7,6.15,14.37,11.8,21.33,17.95,4.5,4,7.16,8.9,5.82,15.35-.36,1.74.86,3.54,0,5.6-2.9,7.28-9.86,10.26-18.58,7.59-2.37-.72-4.69-1.62-7-2.42a15.82,15.82,0,0,0-6.47,5.43c-5.46,7.35-12.67,11.78-21.91,12.32-6.21.37-11.47-2.72-16.72-5.51-1.15-.61-2-1.79-4.16-1-3.24,8-10.42,12.15-18.68,14.2-9.34,2.32-16.21-2.44-21.16-9.43a6,6,0,0,0-5.43,3.22c-3.39,5.38-8.57,7.83-14.25,9-8.39,1.79-16.66,1.58-24.33-3.34-3-1.9-4.1-4.56-4.78-7.38-1.55-1.31-2.71-.65-3.87.07-.32-1.65-1.14-2.2-2.61-1.28-1.08,1.46.14,2.44.58,3.57-12.41,13.44-32.29,9.63-39.7-3.16-1.31-2.27-2.83-4.41-4.22-6.57-4.44.3-6.95,3.33-9.52,5.65-10.33,9.3-24.81,5.61-33.3-.11a12.26,12.26,0,0,1-4.69-6.89c-.67-2.21-1.65-4.32-2.45-6.35-3.5-1.94-5.91.14-8.35,1.77a18.69,18.69,0,0,1-26-5.16c-4.17-6.13-3.9-17,.72-23.69,5.73-8.27,13.42-14.68,20.76-21.42,6.48-5.95,13.68-11.07,19.79-17.36,7.53,3.92,15,7.27,23.88,2.82,17.25,2,35.06,4.08,53,5.57,12.95,1.08,25.92,1.63,38.87,2.55a43.06,43.06,0,0,0,16.72-1.85,19.79,19.79,0,0,1,4.95-.59c7-.43,14-.11,20.92-1.19,3.57-.55,7.33-.09,10.07-3.33.62-.73,2.17-.67,3.29-1,10.71-2.85,21.5-5.42,32.05-9.35l6.47,7.41c-1.1.45-2.07,1-2.08,2.42C-115.78,588.56-115.78,588.56-113.92,586.81ZM-147.42,633c1.48-.73,2.13-1.65,1.62-3.15-1.39-1.18-2.59-1.15-3.63.43A2.59,2.59,0,0,0-147.42,633Zm-37.74,5.87c1.41-.49,2.52-1.2,1.81-3.17-1.19-.84-2.34-1-3.38.22C-187.19,637.32-186.48,638.11-185.16,638.84Zm-38.05,6c1.94.14,2.79-.59,2.92-2.3-.83-1-1.7-2-3.25-1A2.47,2.47,0,0,0-223.21,644.8Zm-120.94-38c1.76-.61,2.36-1.57,1.81-3.15-1.19-.85-2.34-1-3.51.35C-346,605.2-345.53,606.1-344.15,606.8Zm21.84,11.39c-1.57,1-2.29,2-1,3.55a2.14,2.14,0,0,0,3-1.48C-320.31,619.14-320.91,618.52-322.31,618.19Zm98.75,5a2.25,2.25,0,0,0-3.07-.7c-.45,1.22-1,2.54.87,3.38C-224,625.83-223.69,624.67-223.56,623.18Zm-18.5,3.66c-1.28-1.9-2.51-2.29-3.73-.24a1.62,1.62,0,0,0,.59,2.15C-243.75,629.17-242.75,628.66-242.06,626.84Zm-44.69-12.55c.68,1.6,1.75,2.06,3.33,1.24.8-1.81.09-2.76-1.49-3.26A2,2,0,0,0-286.75,614.29Zm85,24.62c-2.32-1.44-3.38-.73-4,1.36C-203.73,642.76-202.68,641.84-201.79,638.91Zm-76.75,11.34a1.91,1.91,0,0,0-2.17,2.09c.75,1.33,1.66,2.1,3.21,1.16C-276.47,652-277.25,651-278.54,650.25Zm-3.66-19.14c-1.51,1-2.28,2.1-.6,3.43a1.72,1.72,0,0,0,2.57-.34C-279.8,632.75-280.27,631.75-282.2,631.11Zm17.16-1c1.86,2.49,3,2.09,3.91-.33C-262.5,627.7-263.67,627.8-265,630.12ZM-258,649c-1.61-2.42-2.79-2.28-4,.23C-260.43,651.35-259.26,651.18-258,649Zm147.16-43.28c-1.88-1.89-3.09-2.12-4,.7C-113.22,608.3-112.1,607.88-110.83,605.67Zm-19,3.07c-1.87-2.14-3-1.72-4.08.25C-132.53,611.18-131.36,611.29-129.88,608.74Zm-209.89,34.69c3.39,0,3.39,0,2.55-2.93C-338.66,640.77-340.06,641-339.77,643.43ZM-264,611c-1.61-2.33-2.79-2.22-4,.26C-266.41,613.49-265.25,613.16-264,611Zm159.19,32c-1.86-1.39-3.09-1.53-4.24.36C-107.58,645.7-106.36,645.71-104.8,643.05Zm-65.63-29.73c-.9,1.64-.51,2.62.93,3.25.92-.32,1.92-.47,2.24-1.94A2.42,2.42,0,0,0-170.43,613.32Zm5.8,37.95c-.43,1.34-.54,2.37,1,3.25.72-.36,2-.14,2.26-1.75C-161.69,651.26-162.71,650.83-164.63,651.27Zm-132.89,2c-1.71.1-1.85,1.3-1.86,2.69.91.87,1.79,1.43,3.14.34C-295.73,655-296.11,654-297.52,653.24ZM-314,658c-1.57-2.39-2.74-2.13-4.06,0C-316.84,660.08-315.69,660.54-314,658Zm111.15,1c.87,1,1.69,1.72,3,1.2.84-.93,1.17-1.88.07-3C-201.15,656.76-202.15,657.22-202.86,659Zm16.74-41.26c-1.73-2.39-2.84-1.76-3.91.42C-188.28,620.44-187.12,620.19-186.12,617.76ZM-205,620.91c-1.81-2.54-2.93-2.11-3.91.49C-207.18,623.3-206,623-205,620.91ZM-338.75,623c-2.59-.72-2.59-.72-4.31.78C-341.5,625.43-340.24,625.59-338.75,623Zm226.25,2.54c2.32.26,4,1.55,4.37-2C-109.7,622.87-111,622.44-112.5,625.55Zm-67.39,29.56c-1.91-1.61-3.08-1.43-3.89,1.16C-182.12,657.3-180.87,657.52-179.89,655.11ZM-241.15,644c-1.88.29-2.32,1.29-1.22,3,.39.59,1.07.71,2,.44C-239.9,646.32-239.41,645.15-241.15,644Zm-4.62-34.56c.33-1.83,0-2.86-1.58-3.22C-249.09,608.86-249.09,608.86-245.77,609.47Zm-116.3,18.2c2.52.5,4.08.68,3.88-2.24C-360.23,624.72-361.21,625.3-362.07,627.67Zm40.82,12.42c2.23,1.31,3.33.8,4.17-1.3C-318.89,637.66-320.17,637.44-321.25,640.09Zm190.61-11.88c3.18.78,3.18.78,2.87-2C-129.47,625.81-130.53,626.31-130.64,628.21Zm-58.52-29.37c-.76-.68-1.38-1.63-2.8-1.19-1.12,1-1.11,2.07.15,2.81S-189.71,600.36-189.16,598.84Zm64.76,48.8c.66-1.51.3-2.46-.9-3.14a2.38,2.38,0,0,0-2.23,2.2C-126.89,648-125.93,648.28-124.4,647.64Zm31.07-25.56c1.9,1.08,3.1,1.28,4-.78C-90.72,619.84-91.92,619.26-93.33,622.08Zm-116.74-22c-1.26,1.56-1.3,2.64.13,3.82C-207.74,602.67-207.58,601.58-210.07,600Zm-116.66,2.58c1.38.49,2.53.62,3.23-1C-325.84,599.91-325.84,599.91-326.73,602.62Zm97.63,4.64c2.68-1.07,2.5-2.23.81-3.79C-230.07,604.13-230.4,605.13-229.1,607.26Zm-71.39,27c-1.41,1-2.2,2-.41,3.88C-298.65,637.13-298.34,636-300.49,634.26Zm214.08,6.36c-.89-1.82-2-2.16-3.59-.76C-89.28,642.62-88.13,642.6-86.41,640.62ZM-150,613.84c1.19-2.07,1.76-3.4-1.12-3.76C-152.4,611.53-152.2,612.58-150,613.84Zm-208.78,31.67c1.62,1.78,2.75,2,4.06-.2C-356,643.68-357.15,643.52-358.82,645.51Zm223.62-53.64c1.82-.79,2.83-1.6,1.15-3.19-.29-.26-.88-.21-1.29-.29C-136.28,589.47-136.29,590.48-135.2,591.87ZM-259,668.35c1.88.82,3.07,1.15,3.88-.69C-256.63,665.59-257.74,665.8-259,668.35Zm-45.93-52c0,2.71.94,3.14,2.76,2.06C-301.79,616.09-302.88,615.9-305,616.33Zm139.38,15.58c-1.7.28-2.58.67-2.24,2.21C-165.62,634.58-165.62,634.58-165.58,631.91Zm-142.09-32.39c1.59.68,2.47.38,2.55-1.14a1.16,1.16,0,0,0-1.15-1.26C-307.87,597.06-308.09,598-307.67,599.52Zm89.5,62.74c.28-1.1.07-2.09-1.19-2.11-1.48,0-1.89.93-1.32,2.27A1.58,1.58,0,0,0-218.17,662.26Zm72.42-11.55c2.33.45,2.9-.33,2.46-2.39C-145.18,647.86-146.16,648.17-145.75,650.71Zm-26.77-56.32c-1.91,1.38-1.59,2.42.16,3.29.2.1.58-.15.9-.25C-170.68,596.24-171,595.32-172.52,594.39Zm-121.15,30.87c2.42.39,2.42.39,1.65-1.9C-293.15,623.5-293.78,624.05-293.67,625.26Zm172.58-7.19c.93-.76,2.21-.89,1.56-2.52C-121.53,615.68-121.53,615.68-121.09,618.07Zm-132,1.15c-.59-1-.72-2.24-2.36-1.74C-255.43,619.52-255.43,619.52-253.08,619.22Zm99.7-27.86c-2,1.13-2.05,2.16-.19,3.26C-152,593.84-151.6,592.92-153.38,591.36Zm-132.87,4c-1.48-1.75-2.46-1.55-3.36.16C-288.52,597.15-287.54,597.37-286.25,595.4Z" transform="translate(403 -83)"/><path class="cls-5" d="M-182.77,544.31c-3.32,11.85-7.83,23.07-10.9,35.54-35.44-.12-70.71-2.19-105.74-8-.94-5.25,1.35-23.9,4.11-33,18.18,6.28,34.26,2.14,48.77-10.23C-228.95,547.49-209.08,557.83-182.77,544.31Z" transform="translate(403 -83)"/><path class="cls-5" d="M-141.27,515.38-129,511.2c6.77,5.43,14.68,9.16,22.73,12.64-1.69,12.66-3.36,25.14-5.06,37.85-6.11,1.38-11.1-1.53-16.22-3.58-2.62-1-5.08-2.46-7.65-3.62-1.52-.69-3.12-1.27-4.71.59,1.91,5,8.07,4.54,11.15,8.41-8.11,3.13-16.42,4.46-25.37,6.78C-149.77,551.69-145.56,533.72-141.27,515.38Z" transform="translate(403 -83)"/><path class="cls-4" d="M-169.14,521.54l22.73-4.6c-5.42,23.16-10.71,45.81-16,68.43-9.52,1.8-18.74,2.26-28.78,2.48C-184.61,565.34-178.44,543.17-169.14,521.54Z" transform="translate(403 -83)"/><path class="cls-1" d="M-351,511.85a189.07,189.07,0,0,0,5.5,32.32c-2.52,5-7.49,6.28-12.06,6.65-11.53.94-22.54-1.27-32-8.52-5.11-3.91-7.87-8.88-6.07-15.54,2.62-2.46,5.88-2.8,9-2.58,9.45.66,17.63-2.18,25-7.89C-358.75,514-355.29,512.8-351,511.85Z" transform="translate(403 -83)"/><path class="cls-1" d="M-106.54,560.78c1.25-9.7,2.51-19.39,3.85-29.7,3.67,2.64,7,5,10.25,7.4a33,33,0,0,0,18,6.43,63.7,63.7,0,0,1,11.73,2.2c3.5.89,6.65,2.54,7.08,6.69.46,4.35-.56,8.28-4.16,11.13a21.91,21.91,0,0,1-8.58,3.85C-82.22,572.17-95,569.93-106.54,560.78Z" transform="translate(403 -83)"/><path class="cls-1" d="M-185.54,669.33c11.72,11.77,24.1,9.71,36.77,2,1.48,15.57-10.4,30.29-25.37,32.37-14.53,2-27.64-9.48-29-23.16,3.14-1.36,6.38-2.59,9.45-4.15S-188.25,672.14-185.54,669.33Z" transform="translate(403 -83)"/><path class="cls-4" d="M-299.84,536.78c-4.24,15.5-3.71,31.46-6.51,47.15a28.21,28.21,0,0,1-12.77-1.88c-3-1.14-4.46-3.59-5.05-6.85-2.41-13.15-.07-25.83,3.54-38.4a93.73,93.73,0,0,1,5.85-15.4A38.38,38.38,0,0,0-299.84,536.78Z" transform="translate(403 -83)"/><path class="cls-6" d="M-312.72,504.65a252,252,0,0,0,64.11,18.4c-3.64,5.44-8.73,8-13.9,10.43-15.12,7-33.69,3.65-44-8.1A25.07,25.07,0,0,1-312.72,504.65Z" transform="translate(403 -83)"/><path class="cls-1" d="M-311,672.86c10.46,1.87,18.54-3,26.22-10.22,5.74,11.74,15.23,17.06,27.62,17.59-.5,8.31-14.84,18.7-30.71,16.78C-301.12,695.41-311.21,685.37-311,672.86Z" transform="translate(403 -83)"/><path class="cls-6" d="M-242.74,524.23c22.58,2.74,44.88.11,67.81-1.9a26.56,26.56,0,0,1-11.25,17.89c-8.41,6.07-17.95,6.91-27.62,4.58C-225.95,541.86-235.6,534.89-242.74,524.23Z" transform="translate(403 -83)"/><path class="cls-5" d="M-346.6,508.93c8.05-3.58,16.2-5.81,24.18-8.79l5.16,2.31c.17,3.65-1.14,7.46.31,10.93a203,203,0,0,0-11.43,35A15.54,15.54,0,0,1-338.66,550C-343.71,537-345.26,523.12-346.6,508.93Z" transform="translate(403 -83)"/><path class="cls-7" d="M-210,589.9c-7.82.25-15.6-.57-23.39-1.1-7.94-.55-15.9-1-23.82-1.88-14.49-1.52-29-2.8-43.4-5-.61-1.72-.41-3.12.51-5.35,34.58,5.44,69.6,7.68,105,7.86l-1.13,4.32a6.11,6.11,0,0,1-4.83,1.05A10,10,0,0,0-210,589.9Z" transform="translate(403 -83)"/><path class="cls-8" d="M-127,568.14c1.22,1.62,2.38,2.85,2,5.44a234.92,234.92,0,0,1-31.79,8.82c.66-2.92.63-5.08,1.85-7.33C-145.82,573.21-136.54,570.87-127,568.14Z" transform="translate(403 -83)"/><path class="cls-9" d="M-113.92,586.81c-1.86,1.75-1.86,1.75-3.85.46,0-1.4,1-2,2.08-2.42A4.16,4.16,0,0,1-113.92,586.81Z" transform="translate(403 -83)"/><path class="cls-10" d="M-238.94,667.07c-.44-1.13-1.66-2.11-.58-3.57,1.47-.92,2.29-.37,2.61,1.28C-237.35,665.75-237.78,666.73-238.94,667.07Z" transform="translate(403 -83)"/><path class="cls-11" d="M-210,589.9a10,10,0,0,1,8.94-.07A33.45,33.45,0,0,1-210,589.9Z" transform="translate(403 -83)"/><path class="cls-12" d="M-348,426.14c-22.7,1-42.46-19.41-42.12-42,.36-23.44,18.84-42.08,42.22-42.14a42.15,42.15,0,0,1,42.07,41.71C-305.46,407.92-326.53,427.39-348,426.14Zm8.94-7.73c-.87-3.05-.9-2.87-4.24-3.43-14.95-2.53-25.78-10.53-30.74-25-2.86-8.38-1.46-16.59,5.46-22.87s14.93-8.47,24.32-7.19C-326,362.38-317.36,380-327,395.47c-6.62,10.58-17.55,10.65-25.75,4.54-6.46-4.81-9-10.89-5.17-18.72,2.12-4.32,8.31-6.69,13.35-5.13,4.09,1.26,5.14,3.61,4.3,9.61-1.12,1.67-2.57,2.6-4.71,2.06-1.64-.32-2.25-2.42-4.06-2.56-2.18,2.39-2.18,2.39-1.4,3.94,1.53,3,6.49,4.68,9.55,3.13,4.06-2.06,6.37-5.25,6-10-.31-4.46-2.15-8-6.38-9.92a15.43,15.43,0,0,0-17.54,2.72,16.37,16.37,0,0,0-4.67,18.25,21.24,21.24,0,0,0,17.08,14.46c8.67,1.49,16.39-.15,22.05-8,10-13.79,7.28-33.18-7.85-40.75-11.09-5.56-22.5-6.06-33.85.24-10.08,5.59-16,17.35-13.39,28.61,3.74,16.38,15,25.69,30.26,30.65C-346.06,419.62-342.39,420.31-339.08,418.41Z" transform="translate(403 -83)"/><path class="cls-12" d="M-144.27,470.1c-22.65.67-42.23-19.23-41.63-42.44.62-24,17.69-39.75,37.14-41.27,30.74-2.39,47.08,19.09,47.21,40.89C-101.38,455-122.95,471.07-144.27,470.1Zm2.3-21.29a7.72,7.72,0,0,0,8.95,0c1.83-.71,3.86-1.13,5.47-2.18,14.65-9.57,16.71-30.71,6.07-41.83-5.61-5.86-12.75-7.71-20.36-9.42-9.59-2.15-26.4,4.89-31.31,15.13-4.51,9.41-4,18.59,1.1,27.64,7,12.43,17.72,19.49,31.71,21.68,2.32.36,4.59.09,5.35-2.69-.41-.5-.57-.9-.83-1a32.61,32.61,0,0,0-4.35-1c-11.09-1.41-19.58-7.2-25.91-16.05-5.14-7.18-7.21-15.08-4.07-23.95,3.46-9.77,16.42-17.07,28.21-15.08,6.57,1.11,13.13,2.78,17.6,8.4,6.38,8,6.71,17.75,1.2,27-3.66,6.12-8.64,9.37-16.07,8.64a18.57,18.57,0,0,1-15.41-10.37,12.25,12.25,0,0,1,5.29-16.68,10.11,10.11,0,0,1,10.49.32c3,1.87,3.45,5.08,2.44,8.52-1,1.23-2,2.57-3.84,2.7-2.39.06-3.45-4.17-6.48-2,0,5.29,2.41,6.83,9.65,6.24,5.6-4.09,7.14-8.43,5.32-13.51-2.42-6.75-9.42-8.68-14-8.11-12.72,1.58-19,15.61-12.11,26.5C-154.11,443.7-148.45,446.8-142,448.81Z" transform="translate(403 -83)"/><path id="eye-1" d="M-296.1,341.33c0-6.3,1.4-12.24,5.07-17.44,5.2-7.37,13.51-6.53,17.18,1.75,4.53,10.21,3.39,20.18-2.38,29.46-4.93,7.94-13.46,7.24-17.5-1.16A27.52,27.52,0,0,1-296.1,341.33Zm8.86-10.93c-2.64-1.21-4-.49-4.4,1.49-.47,2.39-1,5,2.28,6.3C-285.47,336.35-287.53,333.18-287.24,330.4Z" transform="translate(403 -83)"/><path id="eye-2" d="M-179.46,335c7.68,1.33,10.45,6.53,11.68,12.95,1.56,8.07.14,15.63-4.89,22.18-5.69,7.4-14.52,6.36-18.2-2.24-4.09-9.53-3-18.8,2.72-27.48C-186.11,337.27-183,335.8-179.46,335Zm-4.14,19.19a6.26,6.26,0,0,0,1.23-6.7c-2.28-1.33-3.89-.63-4.42,1.43C-187.37,351.11-187.46,353.54-183.6,354.17Z" transform="translate(403 -83)"/><path class="cls-13" d="M-261.2,419.54c-1-2.49-4.58-4-1.43-7.38,4.15,2.27,8,7.3,13.43,2.69.49-2.66-.05-5.36.8-7.79-2-3.53-7.47-5-5.34-10.83a18.7,18.7,0,0,1,15.17-.63c1.92,4.92.91,7-5.19,11.5-.74,1-.39,2.24-.43,3.38s0,2.32,0,3.7c1.58,2,3.12,4.16,6.07,3.87,2.11-.33,2.34-3.17,5-2.8.46.14,1.32.81,1.11,1.59-1.71,6.54-.26,13.58-3.25,19.94a25.13,25.13,0,0,1-4.49,7.1c-5.62,5.76-12.7,5.29-17.37-1.32-4.44-6.3-5.28-13.45-4.26-20.92C-261.29,421-261.27,420.32-261.2,419.54Zm23.86,3.8c-1.82-.49-3.38-.9-4.94-1.35-1.76-.5-2.65-2.48-4.26-2.68-1.84.65-3.39,1.21-5,1.74s-3.61-.63-5.19.58c-.93,8.28-.1,13.17,3,17.8s7.35,5,11,.74C-238.59,435.37-237.87,429.5-237.34,423.34Z" transform="translate(403 -83)"/><path class="cls-14" d="M-188,188c-1.53,8.09-3.9,15.95-6.21,23.85-2.06,7.08-4.24,14.12-6.72,21.05A25,25,0,0,1-216,248.28c-5,1.86-10.72.06-14.2-3.51-5.17-5.32-9.12-11.85-7.77-20.05.72-4.44,2.44-8.55,4-12.72l2-2c.13,3.49-2.54,6.42-2,10-2.27,7.89-1.74,15.09,4.62,21.18,6,5.74,14.88,5.33,20.38-1.18,6.84-6.15,9.31-14.39,11-23a62.59,62.59,0,0,1,3-11,19.6,19.6,0,0,0,3-12,20.17,20.17,0,0,0,3-9h1Z" transform="translate(403 -83)"/><path class="cls-15" d="M-103,245c4-9.57,8.12-19.08,15.89-26.4,3-2.85,5.25-6.38,8.21-9.33,3.61-3.6,8-4.49,12.68-4.65,1.79-.06,3.36,1,4.77,2.36,5.81,5.6,6.27,12.7,5.18,19.89-.5,3.36-1.78,6.69-2.19,10.12-.93,7.72-5.15,14.2-7.76,21.27A5,5,0,0,1-69,261v-2c3.69-7.31,6.72-14.85,8-23,1.68-2.18,1.37-4.95,2.16-7.4,3.07-9.52-1.36-17.73-10.83-20.5C-78.1,210.91-85.73,217.58-89,225c-3.45,2.31-5,6.06-7,9.42C-98.17,238-99.55,242.21-103,245Z" transform="translate(403 -83)"/><path class="cls-16" d="M-69,259v2c-3.53,7.81-7.56,15.38-13.07,21.95-3.74,4.46-7.73,8.77-13.06,11.57-9.17,4.81-19.69-4.07-19.87-11.95-.14-6.42-.82-12.93,1.14-19.14,1.73-5.47,4.21-10.67,8.85-14.44,0,1,0,2,0,3-4.77,5.45-6.29,11.93-7.36,19-1.27,8.42-.33,15.4,6.51,20.47,6.13,2.15,10.8.14,15.4-3.39,7.83-6,12.26-14.54,17.46-22.52C-71.59,263.41-71.5,260.47-69,259Z" transform="translate(403 -83)"/><path class="cls-17" d="M-188,188v-3a160.7,160.7,0,0,0,3.05-26.89c.36-9.78-2.78-14.91-12.55-17-3.66.69-6.76,2.52-10.15,5.09.6,2.19-2.36,3.33-2.35,5.82l-2,4c-1.42.48-1.74,1.88-2.5,2.93-1.9,2.65-2.68,6.06-5.5,8.07v-3c.7-3.93,4-6.25,5.86-9.49,2.16-3.79,2.69-8.44,6.14-11.51a20.39,20.39,0,0,0,6-3.7c6.76-1.15,12,.39,16.07,5.23A10.46,10.46,0,0,0-184,146c2.59,5.88,1.27,12,.85,18-.46,6.55-1.82,13.05-3,19.54C-186.39,185.09-186.59,186.85-188,188Z" transform="translate(403 -83)"/><path class="cls-17" d="M-220,164v3q-5.42,21.66-12,43l-2,2c2.1-9.29,5.56-18.23,7.32-27.62a138.33,138.33,0,0,1,4.31-15.62C-221.84,167.05-221.64,165.16-220,164Z" transform="translate(403 -83)"/><path class="cls-18" d="M-184,146a10.46,10.46,0,0,1-1.93-1.47c-4.08-4.84-9.31-6.38-16.07-5.23a20.39,20.39,0,0,1-6,3.7c1.94-4.39,7-7.74,11.37-6.89s8.3,2.16,11.17,5.85A5.48,5.48,0,0,1-184,146Z" transform="translate(403 -83)"/><path class="cls-19" d="M-105,252c0-1,0-2,0-3l2-4c3.45-2.79,4.83-7,7-10.58,2-3.36,3.53-7.11,7-9.42h1c-.17.62-.14,1.44-.53,1.84-4.71,4.67-7.57,10.52-10.57,16.3-.81,1.56-2.29,2.83-1.9,4.86-2.09.58-1.91,3.42-4,4Z" transform="translate(403 -83)"/><path class="cls-20" d="M-147.42,633a2.59,2.59,0,0,1-2-2.72c1-1.58,2.24-1.61,3.63-.43C-145.29,631.32-145.94,632.24-147.42,633Z" transform="translate(403 -83)"/><path class="cls-21" d="M-185.16,638.84c-1.32-.73-2-1.52-1.57-3,1-1.26,2.19-1.06,3.38-.22C-182.64,637.64-183.75,638.35-185.16,638.84Z" transform="translate(403 -83)"/><path class="cls-22" d="M-223.21,644.8a2.47,2.47,0,0,1-.33-3.28c1.55-1,2.42,0,3.25,1C-220.42,644.21-221.27,644.94-223.21,644.8Z" transform="translate(403 -83)"/><path class="cls-22" d="M-344.15,606.8c-1.38-.7-1.89-1.6-1.7-2.8,1.17-1.4,2.32-1.2,3.51-.35C-341.79,605.23-342.39,606.19-344.15,606.8Z" transform="translate(403 -83)"/><path class="cls-22" d="M-322.31,618.19c1.4.33,2,.95,2,2.07a2.14,2.14,0,0,1-3,1.48C-324.6,620.21-323.88,619.17-322.31,618.19Z" transform="translate(403 -83)"/><path class="cls-23" d="M-223.56,623.18c-.13,1.49-.46,2.65-2.2,2.68-1.87-.84-1.32-2.16-.87-3.38A2.25,2.25,0,0,1-223.56,623.18Z" transform="translate(403 -83)"/><path class="cls-24" d="M-242.06,626.84c-.69,1.82-1.69,2.33-3.14,1.91a1.62,1.62,0,0,1-.59-2.15C-244.57,624.55-243.34,624.94-242.06,626.84Z" transform="translate(403 -83)"/><path class="cls-25" d="M-286.75,614.29a2,2,0,0,1,1.84-2c1.58.5,2.29,1.45,1.49,3.26C-285,616.35-286.07,615.89-286.75,614.29Z" transform="translate(403 -83)"/><path class="cls-26" d="M-201.79,638.91c-.89,2.93-1.94,3.85-4,1.36C-205.17,638.18-204.11,637.47-201.79,638.91Z" transform="translate(403 -83)"/><path class="cls-27" d="M-278.54,650.25c1.29.79,2.07,1.72,1,3.25-1.55.94-2.46.17-3.21-1.16A1.91,1.91,0,0,1-278.54,650.25Z" transform="translate(403 -83)"/><path class="cls-28" d="M-282.2,631.11c1.93.64,2.4,1.64,2,3.09a1.72,1.72,0,0,1-2.57.34C-284.48,633.21-283.71,632.14-282.2,631.11Z" transform="translate(403 -83)"/><path class="cls-29" d="M-265,630.12c1.37-2.32,2.54-2.42,3.91-.33C-262,632.21-263.18,632.61-265,630.12Z" transform="translate(403 -83)"/><path class="cls-30" d="M-258,649c-1.27,2.23-2.44,2.4-4,.23C-260.78,646.67-259.6,646.53-258,649Z" transform="translate(403 -83)"/><path class="cls-31" d="M-110.83,605.67c-1.27,2.21-2.39,2.63-4,.7C-113.92,603.55-112.71,603.78-110.83,605.67Z" transform="translate(403 -83)"/><path class="cls-21" d="M-129.88,608.74c-1.48,2.55-2.65,2.44-4.08.25C-132.85,607-131.75,606.6-129.88,608.74Z" transform="translate(403 -83)"/><path class="cls-32" d="M-339.77,643.43c-.29-2.46,1.11-2.66,2.55-2.93C-336.38,643.43-336.38,643.43-339.77,643.43Z" transform="translate(403 -83)"/><path class="cls-32" d="M-264,611c-1.26,2.15-2.42,2.48-4,.26C-266.78,608.79-265.6,608.68-264,611Z" transform="translate(403 -83)"/><path class="cls-20" d="M-104.8,643.05c-1.56,2.66-2.78,2.65-4.24.36C-107.89,641.52-106.66,641.66-104.8,643.05Z" transform="translate(403 -83)"/><path class="cls-21" d="M-170.43,613.32a2.42,2.42,0,0,1,3.17,1.31c-.32,1.47-1.32,1.62-2.24,1.94C-170.94,615.94-171.33,615-170.43,613.32Z" transform="translate(403 -83)"/><path class="cls-27" d="M-164.63,651.27c1.92-.44,2.94,0,3.3,1.5-.28,1.61-1.54,1.39-2.26,1.75C-165.17,653.64-165.06,652.61-164.63,651.27Z" transform="translate(403 -83)"/><path class="cls-33" d="M-297.52,653.24c1.41.75,1.79,1.79,1.28,3-1.35,1.09-2.23.53-3.14-.34C-299.37,654.54-299.23,653.34-297.52,653.24Z" transform="translate(403 -83)"/><path class="cls-25" d="M-314,658c-1.68,2.51-2.83,2.05-4.06,0C-316.75,655.9-315.58,655.64-314,658Z" transform="translate(403 -83)"/><path class="cls-33" d="M-202.86,659c.71-1.8,1.71-2.26,3.08-1.81,1.1,1.13.77,2.08-.07,3C-201.17,660.74-202,660.06-202.86,659Z" transform="translate(403 -83)"/><path class="cls-23" d="M-186.12,617.76c-1,2.43-2.16,2.68-3.91.42C-189,616-187.85,615.37-186.12,617.76Z" transform="translate(403 -83)"/><path class="cls-34" d="M-205,620.91c-1.09,2.09-2.22,2.39-3.91.49C-207.89,618.8-206.77,618.37-205,620.91Z" transform="translate(403 -83)"/><path class="cls-20" d="M-338.75,623c-1.49,2.58-2.75,2.42-4.31.78C-341.34,622.29-341.34,622.29-338.75,623Z" transform="translate(403 -83)"/><path class="cls-29" d="M-112.5,625.55c1.51-3.11,2.8-2.68,4.37-2C-108.46,627.1-110.18,625.81-112.5,625.55Z" transform="translate(403 -83)"/><path class="cls-34" d="M-179.89,655.11c-1,2.41-2.23,2.19-3.89,1.16C-183,653.68-181.8,653.5-179.89,655.11Z" transform="translate(403 -83)"/><path class="cls-23" d="M-241.15,644c1.74,1.12,1.25,2.29.75,3.42-.9.27-1.58.15-2-.44C-243.47,645.32-243,644.32-241.15,644Z" transform="translate(403 -83)"/><path class="cls-24" d="M-245.77,609.47c-3.32-.61-3.32-.61-1.58-3.22C-245.8,606.61-245.44,607.64-245.77,609.47Z" transform="translate(403 -83)"/><path class="cls-33" d="M-362.07,627.67c.86-2.37,1.84-2.95,3.88-2.24C-358,628.35-359.55,628.17-362.07,627.67Z" transform="translate(403 -83)"/><path class="cls-35" d="M-321.25,640.09c1.08-2.65,2.36-2.43,4.17-1.3C-317.92,640.89-319,641.4-321.25,640.09Z" transform="translate(403 -83)"/><path class="cls-27" d="M-130.64,628.21c.11-1.9,1.17-2.4,2.87-2C-127.46,629-127.46,629-130.64,628.21Z" transform="translate(403 -83)"/><path class="cls-36" d="M-189.16,598.84c-.55,1.52-1.3,2.41-2.65,1.62s-1.27-1.82-.15-2.81C-190.54,597.21-189.92,598.16-189.16,598.84Z" transform="translate(403 -83)"/><path class="cls-34" d="M-124.4,647.64c-1.53.64-2.49.31-3.13-.94a2.38,2.38,0,0,1,2.23-2.2C-124.1,645.18-123.74,646.13-124.4,647.64Z" transform="translate(403 -83)"/><path class="cls-30" d="M-93.33,622.08c1.41-2.82,2.61-2.24,4-.78C-90.23,623.36-91.43,623.16-93.33,622.08Z" transform="translate(403 -83)"/><path class="cls-37" d="M-210.07,600c2.49,1.54,2.33,2.63.13,3.82C-211.37,602.68-211.33,601.6-210.07,600Z" transform="translate(403 -83)"/><path class="cls-38" d="M-326.73,602.62c.89-2.71.89-2.71,3.23-1C-324.2,603.24-325.35,603.11-326.73,602.62Z" transform="translate(403 -83)"/><path class="cls-38" d="M-229.1,607.26c-1.3-2.13-1-3.13.81-3.79C-226.6,605-226.42,606.19-229.1,607.26Z" transform="translate(403 -83)"/><path class="cls-39" d="M-300.49,634.26c2.15,1.76,1.84,2.87-.41,3.88C-302.69,636.29-301.9,635.29-300.49,634.26Z" transform="translate(403 -83)"/><path class="cls-40" d="M-86.41,640.62c-1.72,2-2.87,2-3.59-.76C-88.37,638.46-87.3,638.8-86.41,640.62Z" transform="translate(403 -83)"/><path class="cls-41" d="M-150,613.84c-2.16-1.26-2.36-2.31-1.12-3.76C-148.28,610.44-148.85,611.77-150,613.84Z" transform="translate(403 -83)"/><path class="cls-42" d="M-358.82,645.51c1.67-2,2.78-1.83,4.06-.2C-356.07,647.46-357.2,647.29-358.82,645.51Z" transform="translate(403 -83)"/><path class="cls-26" d="M-135.2,591.87c-1.09-1.39-1.08-2.4-.14-3.48.41.08,1,0,1.29.29C-132.37,590.27-133.38,591.08-135.2,591.87Z" transform="translate(403 -83)"/><path class="cls-43" d="M-259,668.35c1.29-2.55,2.4-2.76,3.88-.69C-256,669.5-257.15,669.17-259,668.35Z" transform="translate(403 -83)"/><path class="cls-44" d="M-305,616.33c2.08-.43,3.17-.24,2.76,2.06C-304,619.47-304.91,619-305,616.33Z" transform="translate(403 -83)"/><path class="cls-41" d="M-165.58,631.91c0,2.67,0,2.67-2.24,2.21C-168.16,632.58-167.28,632.19-165.58,631.91Z" transform="translate(403 -83)"/><path class="cls-33" d="M-307.67,599.52c-.42-1.53-.2-2.46,1.4-2.4a1.16,1.16,0,0,1,1.15,1.26C-305.2,599.9-306.08,600.2-307.67,599.52Z" transform="translate(403 -83)"/><path class="cls-35" d="M-218.17,662.26a1.58,1.58,0,0,1-2.51.16c-.57-1.34-.16-2.28,1.32-2.27C-218.1,660.17-217.89,661.16-218.17,662.26Z" transform="translate(403 -83)"/><path class="cls-45" d="M-145.75,650.71c-.41-2.54.57-2.85,2.46-2.39C-142.85,650.38-143.42,651.16-145.75,650.71Z" transform="translate(403 -83)"/><path class="cls-46" d="M-172.52,594.39c1.56.93,1.84,1.85,1.06,3-.32.1-.7.35-.9.25C-174.11,596.81-174.43,595.77-172.52,594.39Z" transform="translate(403 -83)"/><path class="cls-47" d="M-293.67,625.26c-.11-1.21.52-1.76,1.65-1.9C-291.25,625.65-291.25,625.65-293.67,625.26Z" transform="translate(403 -83)"/><path class="cls-48" d="M-121.09,618.07c-.44-2.39-.44-2.39,1.56-2.52C-118.88,617.18-120.16,617.31-121.09,618.07Z" transform="translate(403 -83)"/><path class="cls-49" d="M-253.08,619.22c-2.35.3-2.35.3-2.36-1.74C-253.8,617-253.67,618.2-253.08,619.22Z" transform="translate(403 -83)"/><path class="cls-50" d="M-153.38,591.36c1.78,1.56,1.37,2.48-.19,3.26C-155.43,593.52-155.39,592.49-153.38,591.36Z" transform="translate(403 -83)"/><path class="cls-27" d="M-286.25,595.4c-1.29,2-2.27,1.75-3.36.16C-288.71,593.85-287.73,593.65-286.25,595.4Z" transform="translate(403 -83)"/><path class="cls-1" d="M-339.08,418.41c-3.31,1.9-7,1.21-10.08.21-15.29-5-26.52-14.27-30.26-30.65-2.57-11.26,3.31-23,13.39-28.61,11.35-6.3,22.76-5.8,33.85-.24,15.13,7.57,17.81,27,7.85,40.75-5.66,7.85-13.38,9.49-22.05,8a21.24,21.24,0,0,1-17.08-14.46,16.37,16.37,0,0,1,4.67-18.25,15.43,15.43,0,0,1,17.54-2.72c4.23,1.93,6.07,5.46,6.38,9.92.33,4.73-2,7.92-6,10-3.06,1.55-8-.11-9.55-3.13-.78-1.55-.78-1.55,1.4-3.94,1.81.14,2.42,2.24,4.06,2.56,2.14.54,3.59-.39,4.71-2.05.84-6-.21-8.36-4.3-9.62-5-1.56-11.23.81-13.35,5.13-3.85,7.83-1.29,13.91,5.17,18.72,8.2,6.11,19.13,6,25.75-4.54,9.66-15.45,1-33.09-17.26-35.58-9.39-1.28-17.45.95-24.32,7.19s-8.32,14.49-5.46,22.87c5,14.5,15.79,22.5,30.74,25C-340,415.54-339.95,415.36-339.08,418.41Z" transform="translate(403 -83)"/><path class="cls-1" d="M-142,448.81c-6.48-2-12.14-5.11-15.91-11.1-6.86-10.89-.61-24.92,12.11-26.5,4.6-.57,11.6,1.36,14,8.11,1.82,5.08.28,9.42-5.32,13.51-7.24.59-9.65-.95-9.65-6.24,3-2.15,4.09,2.08,6.48,2,1.84-.13,2.84-1.47,3.84-2.7,1-3.44.59-6.65-2.44-8.52a10.11,10.11,0,0,0-10.49-.32,12.25,12.25,0,0,0-5.29,16.68,18.57,18.57,0,0,0,15.41,10.37c7.43.73,12.41-2.52,16.07-8.64,5.51-9.21,5.18-18.94-1.2-27-4.47-5.62-11-7.29-17.6-8.4-11.79-2-24.75,5.31-28.21,15.08-3.14,8.87-1.07,16.77,4.07,23.95,6.33,8.85,14.82,14.64,25.91,16.05a32.61,32.61,0,0,1,4.35,1c.26.07.42.47.83,1-.76,2.78-3,3.05-5.35,2.69-14-2.19-24.67-9.25-31.71-21.68-5.13-9.05-5.61-18.23-1.1-27.64,4.91-10.24,21.72-17.28,31.31-15.13,7.61,1.71,14.75,3.56,20.36,9.42,10.64,11.12,8.58,32.26-6.07,41.83-1.61,1-3.64,1.47-5.47,2.18Z" transform="translate(403 -83)"/><path class="cls-51" d="M-142,448.81l8.95,0A7.72,7.72,0,0,1-142,448.81Z" transform="translate(403 -83)"/><path class="cls-52" d="M-287.24,330.4c-.29,2.78,1.77,6-2.12,7.79-3.3-1.28-2.75-3.91-2.28-6.3C-291.25,329.91-289.88,329.19-287.24,330.4Z" transform="translate(403 -83)"/><path class="cls-53" d="M-183.6,354.17c-3.86-.63-3.77-3.06-3.19-5.27.53-2.06,2.14-2.76,4.42-1.43A6.26,6.26,0,0,1-183.6,354.17Z" transform="translate(403 -83)"/><path class="cls-54" d="M-237.34,423.34c-.53,6.16-1.25,12-5.36,16.83-3.67,4.28-7.91,3.95-11-.74s-3.89-9.52-3-17.8c1.58-1.21,3.51,0,5.19-.58s3.11-1.09,5-1.74c1.61.2,2.5,2.18,4.26,2.68C-240.72,422.44-239.16,422.85-237.34,423.34Z" transform="translate(403 -83)"/><path class="cls-55" d="M-212,156l2-4c2.82-.73,3.67-3.6,5.67-5.24,3.46-2.86,8.07-2.94,12.08-1,5.43,2.63,6.85,12.05,6,17.73-1.08,7.14-1.85,14.34-2.75,21.51a20.17,20.17,0,0,1-3,9h-1a17.47,17.47,0,0,1,.9-6.27A58.7,58.7,0,0,0-189,168c2.43-7.22.35-13.63-2.73-19.16-8.49-3.29-13.16.26-17.28,6.39-2,2.92-2.59,6.84-6,8.77C-215.11,160.92-211.46,159.24-212,156Z" transform="translate(403 -83)"/><path class="cls-56" d="M-212,156c.54,3.24-3.11,4.92-3,8,.19,2-1.49,3.25-2.19,4.89C-222.74,181.8-225,195.65-229,209c-2.1,2.05-2.63,4.76-2.95,7.48-.18,1.57-.46,2.86-2.05,3.52h0c-.54-3.58,2.13-6.51,2-10q6.58-21.33,12-43c2.82-2,3.6-5.42,5.5-8.07C-213.74,157.88-213.42,156.48-212,156Z" transform="translate(403 -83)"/><path class="cls-57" d="M-189,185c.9-7.17,1.67-14.37,2.75-21.51.85-5.68-.57-15.1-6-17.73-4-1.94-8.62-1.86-12.08,1-2,1.64-2.85,4.51-5.67,5.24,0-2.49,2.95-3.63,2.35-5.82,3.39-2.57,6.49-4.4,10.15-5.09,9.77,2.11,12.91,7.24,12.55,17A160.7,160.7,0,0,1-188,185Z" transform="translate(403 -83)"/><path class="cls-56" d="M-209,240c-5.5,6.51-14.39,6.92-20.38,1.18-6.36-6.09-6.89-13.29-4.62-21.18h0c0,2.32-.17,4.65,0,6.95.59,6.46,3.44,11.91,9.15,15,4.69,2.54,9.6,1.55,13.81-1.93Z" transform="translate(403 -83)"/><path class="cls-58" d="M-209,240h-2c1.76-3.16,5.76-4.82,6-9,2.86-2.32,1-6.73,4-9,1.64-1.28,1-3.92,3-5C-199.69,225.61-202.16,233.85-209,240Z" transform="translate(403 -83)"/><path class="cls-55" d="M-198,217c-2,1.08-1.36,3.72-3,5a183.7,183.7,0,0,1,8-28h0c1,4.27-3,7.73-2,12A62.59,62.59,0,0,0-198,217Z" transform="translate(403 -83)"/><path class="cls-58" d="M-195,206c-1-4.27,3-7.73,2-12h1A19.6,19.6,0,0,1-195,206Z" transform="translate(403 -83)"/><path class="cls-59" d="M-69,259c-2.5,1.47-2.59,4.41-4,6.56-5.2,8-9.63,16.51-17.46,22.52-4.6,3.53-9.27,5.54-15.4,3.39-6.84-5.07-7.78-12.05-6.51-20.47,1.07-7.07,2.59-13.55,7.36-19h0v3a10,10,0,0,0-3,7c-4.6,6.15-2.46,13.26-3,19.55a15.48,15.48,0,0,0,8.19,8.35c4.38.41,8.71.16,11.83-3.9,2.22-3.69,6.54-5.7,8-10,4.3-2.91,6.66-7.12,8-12,1.45-3.44,4.45-6.11,5-10,2-1.92,3.46-4,3-7a3.33,3.33,0,0,0,2-2.59c1.29-5.92,3-11.78,3.85-17.76,1-6.46-2.61-11.49-9-13.68L-77,215h-1c1.15-2.24,3.62-2.65,5.09-3.94,9.67-.11,12.72,3.05,13,12.22.13,4.33-1.58,8.41-1.08,12.72C-62.28,244.15-65.31,251.69-69,259Z" transform="translate(403 -83)"/><path class="cls-60" d="M-61,236c-.5-4.31,1.21-8.39,1.08-12.72-.27-9.17-3.32-12.33-13-12.22-1.47,1.29-3.94,1.7-5.09,3.94-4.4,2.27-5.83,7.5-10,10h-1c3.27-7.42,10.9-14.09,19.33-16.9,9.47,2.77,13.9,11,10.83,20.5C-59.63,231.05-59.32,233.82-61,236Z" transform="translate(403 -83)"/><path class="cls-61" d="M-88,225c4.17-2.5,5.6-7.73,10-10h1l-3,4c-6.26,7.81-13.11,15.19-17.64,24.27-.86,1.71-1.25,3.87-3.36,4.73h0c-.39-2,1.09-3.3,1.9-4.86,3-5.78,5.86-11.63,10.57-16.3C-88.14,226.44-88.17,225.62-88,225Z" transform="translate(403 -83)"/><path class="cls-61" d="M-105,255v-3c2.09-.58,1.91-3.42,4-4h0C-101.35,250.9-103.22,252.92-105,255Z" transform="translate(403 -83)"/><path class="cls-62" d="M-193,194a183.7,183.7,0,0,0-8,28c-3,2.27-1.14,6.68-4,9-3.47,2.12-4.6,6.49-8.85,8.7-.75.21-2.17.63-3.6,1-5.14,1.21-7.87,0-11-4.38-5.62-8-4.12-16.1-.59-24.29l2-2q-1.37,6.27-2.72,12.54c-1.59,7.33,2.6,13.78,9.62,14.94,2.38.39,4.45-1,6.88-.61,5-6.54,10-12.91,10.5-22.21,2-2.21,2.84-5.66,3.55-9,1.7-8,3.56-16,5.65-23.86,2.24-8.42,3.3-16.61,2.24-25.25a16,16,0,0,0-3.85-4c-4.67-1.44-7.89.09-10.87,2.44.75-4.27,4.28-5,7.41-5.95,4.09.83,6.33,3.64,8.43,6.78,0,4,1.73,8,1.16,12.17a58.7,58.7,0,0,1-3.1,19.73A17.47,17.47,0,0,0-193,194Z" transform="translate(403 -83)"/><path class="cls-63" d="M-227,210l-2,2v-3c4-13.35,6.26-27.2,11.81-40.11.7-1.64,2.38-2.87,2.19-4.89,3.4-1.93,4-5.85,6-8.77,4.12-6.13,8.79-9.68,17.28-6.39,3.08,5.53,5.16,11.94,2.73,19.16.57-4.18-1.13-8.13-1.16-12.17-2.1-3.14-4.34-6-8.43-6.78-3.13,1-6.66,1.68-7.41,5.95a134,134,0,0,0-13,27c-3.2,2.67-2.86,6.41-3,10h0c-2.71,3.2-3,7.07-3,11h0c-2,1.56-2.08,3.75-2,6Z" transform="translate(403 -83)"/><path class="cls-64" d="M-229,209v3c-3.53,8.19-5,16.29.59,24.29,3.09,4.4,5.82,5.59,11,4.38,1.43-.34,2.85-.76,3.6-1,4.25-2.21,5.38-6.58,8.85-8.7-.24,4.18-4.24,5.84-6,9-4.21,3.48-9.12,4.47-13.81,1.93-5.71-3.07-8.56-8.52-9.15-15-.21-2.3,0-4.63,0-6.95,1.59-.66,1.87-1.95,2.05-3.52C-231.63,213.76-231.1,211.05-229,209Z" transform="translate(403 -83)"/><path class="cls-63" d="M-105,255c1.78-2.08,3.65-4.1,4-7,2.11-.86,2.5-3,3.36-4.73C-93.11,234.19-86.26,226.81-80,219c2.42-.15,3.78-2.44,6-3,.19,2.23-2.65,2.18-3,4-2.45,1.38-2.84,4.33-4.71,6.16-9.43,9.27-15.58,20.75-21.42,32.37-1.73,3.45-2.28,7.47-3.76,11.07-2.4,5.82-.69,10.58,2.82,14.91l5.61,1.38c5.07-1.33,8.22-4.61,11-8.14,3.4-4.4,6.35-9.15,9.5-13.75,3.66-2.4,4.18-7,7-10h1c-.55,3.89-3.55,6.56-5,10a70.41,70.41,0,0,0-8,12c-1.46,4.3-5.78,6.31-8,10-2.9.23-5,2.66-7.73,3-8.51-1-12.44-7.3-10.61-16.69.65-3.35,1.69-6.76,1.34-10.29A10,10,0,0,1-105,255Z" transform="translate(403 -83)"/><path class="cls-65" d="M-74,216c-2.22.56-3.58,2.85-6,3l3-4,6.93-2c6.35,2.19,9.92,7.22,9,13.68-.88,6-2.56,11.84-3.85,17.76A3.33,3.33,0,0,1-67,247h0c.36-5.91,2.6-11.43,3.65-17.2A13.92,13.92,0,0,0-68.1,216Z" transform="translate(403 -83)"/><path class="cls-61" d="M-108,262c.35,3.53-.69,6.94-1.34,10.29-1.83,9.39,2.1,15.7,10.61,16.69,2.76-.32,4.83-2.75,7.73-3-3.12,4.06-7.45,4.31-11.83,3.9a15.48,15.48,0,0,1-8.19-8.35C-110.46,275.26-112.6,268.15-108,262Z" transform="translate(403 -83)"/><path class="cls-66" d="M-83,276a70.41,70.41,0,0,1,8-12C-76.34,268.88-78.7,273.09-83,276Z" transform="translate(403 -83)"/><path class="cls-65" d="M-70,254h-1v-2c2.47-.76,2.52-3.45,4-5h0C-66.54,250-68,252.08-70,254Z" transform="translate(403 -83)"/><path class="cls-67" d="M-219,182a134,134,0,0,1,13-27c3-2.35,6.2-3.88,10.87-2.44a16,16,0,0,1,3.85,4c1.06,8.64,0,16.83-2.24,25.25-2.09,7.86-3.95,15.86-5.65,23.86-.71,3.34-1.57,6.79-3.55,9-.49,9.3-5.47,15.67-10.5,22.21-2.43-.38-4.5,1-6.88.61-7-1.16-11.21-7.61-9.62-14.94q1.36-6.27,2.72-12.54v-1c3.8-1,1.2-4,2-6h0c1.43-3.55,4.38-6.69,3-11h0C-220.8,188.73-218.82,185.69-219,182Z" transform="translate(403 -83)"/><path class="cls-62" d="M-222,192c1.38,4.31-1.57,7.45-3,11C-225,199.07-224.71,195.2-222,192Z" transform="translate(403 -83)"/><path class="cls-62" d="M-219,182c.18,3.69-1.8,6.73-3,10C-221.86,188.41-222.2,184.67-219,182Z" transform="translate(403 -83)"/><path class="cls-62" d="M-225,203c-.8,2,1.8,5-2,6C-227.08,206.75-227,204.56-225,203Z" transform="translate(403 -83)"/><path class="cls-67" d="M-78,264c-3.15,4.6-6.1,9.35-9.5,13.75-2.74,3.53-5.89,6.81-11,8.14l-5.61-1.38c-3.51-4.33-5.22-9.09-2.82-14.91,1.48-3.6,2-7.62,3.76-11.07,5.84-11.62,12-23.1,21.42-32.37,1.87-1.83,2.26-4.78,4.71-6.16,1.72.34,3.15-.86,4.68-.92,5.6,1.63,7.3,5.68,7,11.57-1.52,1.77-1.78,4.53-1.69,7.4a10.11,10.11,0,0,1-2.06,6.47A10.48,10.48,0,0,0-71,252C-75.34,254.83-76.76,259.36-78,264Z" transform="translate(403 -83)"/><path class="cls-68" d="M-71,252a10.48,10.48,0,0,1,1.92-7.48A10.11,10.11,0,0,0-67,238.05c-.09-2.87.17-5.63,1.69-7.4.31-5.89-1.39-9.94-7-11.57-1.53.06-3,1.26-4.68.92.35-1.82,3.19-1.77,3-4h5.9a13.92,13.92,0,0,1,4.75,13.8c-1.05,5.77-3.29,11.29-3.65,17.2C-68.48,248.55-68.53,251.24-71,252Z" transform="translate(403 -83)"/><path class="cls-68" d="M-78,264c1.24-4.64,2.66-9.17,7-12v2C-73.82,257-74.34,261.6-78,264Z" transform="translate(403 -83)"/></svg>